<mxfile host="app.diagrams.net" modified="2023-11-01T17:12:27.930Z" agent="Mozilla/5.0 (Windows NT 10.0; Win64; x64) AppleWebKit/537.36 (KHTML, like Gecko) Chrome/116.0.0.0 Safari/537.36 OPR/102.0.0.0" etag="g_OJVjHXIBd_02klVE_d" version="22.0.8" type="device" pages="3">
  <diagram name="Page-1" id="xrSaT7cqcEygCInzDGiI">
    <mxGraphModel dx="1657" dy="458" grid="1" gridSize="10" guides="1" tooltips="1" connect="1" arrows="1" fold="1" page="1" pageScale="1" pageWidth="850" pageHeight="1100" math="0" shadow="0">
      <root>
        <mxCell id="0" />
        <mxCell id="1" parent="0" />
        <mxCell id="PkPAuHADQwBoovgRxsWc-16" style="edgeStyle=orthogonalEdgeStyle;rounded=0;orthogonalLoop=1;jettySize=auto;html=1;exitX=0.5;exitY=1;exitDx=0;exitDy=0;entryX=0.5;entryY=0;entryDx=0;entryDy=0;" parent="1" source="PkPAuHADQwBoovgRxsWc-2" target="PkPAuHADQwBoovgRxsWc-3" edge="1">
          <mxGeometry relative="1" as="geometry" />
        </mxCell>
        <mxCell id="PkPAuHADQwBoovgRxsWc-2" value="Start_NumberGuesser" style="ellipse;whiteSpace=wrap;html=1;" parent="1" vertex="1">
          <mxGeometry x="345" y="20" width="160" height="60" as="geometry" />
        </mxCell>
        <mxCell id="PkPAuHADQwBoovgRxsWc-17" style="edgeStyle=orthogonalEdgeStyle;rounded=0;orthogonalLoop=1;jettySize=auto;html=1;exitX=0.5;exitY=1;exitDx=0;exitDy=0;entryX=0.5;entryY=0;entryDx=0;entryDy=0;" parent="1" source="PkPAuHADQwBoovgRxsWc-3" target="PkPAuHADQwBoovgRxsWc-5" edge="1">
          <mxGeometry relative="1" as="geometry" />
        </mxCell>
        <mxCell id="PkPAuHADQwBoovgRxsWc-3" value="INPUT name" style="shape=parallelogram;perimeter=parallelogramPerimeter;whiteSpace=wrap;html=1;fixedSize=1;" parent="1" vertex="1">
          <mxGeometry x="365" y="120" width="120" height="40" as="geometry" />
        </mxCell>
        <mxCell id="PkPAuHADQwBoovgRxsWc-18" style="edgeStyle=orthogonalEdgeStyle;rounded=0;orthogonalLoop=1;jettySize=auto;html=1;exitX=0.5;exitY=1;exitDx=0;exitDy=0;entryX=0.5;entryY=0;entryDx=0;entryDy=0;" parent="1" source="PkPAuHADQwBoovgRxsWc-39" target="PkPAuHADQwBoovgRxsWc-6" edge="1">
          <mxGeometry relative="1" as="geometry" />
        </mxCell>
        <mxCell id="PkPAuHADQwBoovgRxsWc-5" value="GUESS_N = 33" style="rounded=0;whiteSpace=wrap;html=1;" parent="1" vertex="1">
          <mxGeometry x="365" y="200" width="120" height="40" as="geometry" />
        </mxCell>
        <mxCell id="PkPAuHADQwBoovgRxsWc-19" style="edgeStyle=orthogonalEdgeStyle;rounded=0;orthogonalLoop=1;jettySize=auto;html=1;exitX=0.5;exitY=1;exitDx=0;exitDy=0;entryX=0.5;entryY=0;entryDx=0;entryDy=0;" parent="1" source="PkPAuHADQwBoovgRxsWc-6" target="PkPAuHADQwBoovgRxsWc-7" edge="1">
          <mxGeometry relative="1" as="geometry" />
        </mxCell>
        <mxCell id="PkPAuHADQwBoovgRxsWc-6" value="PRINT &quot;Hello, &quot; name &quot;I&#39;ve chosen a number between 1 and 100. Try to guess it!&quot;" style="shape=parallelogram;perimeter=parallelogramPerimeter;whiteSpace=wrap;html=1;fixedSize=1;" parent="1" vertex="1">
          <mxGeometry x="240" y="380" width="370" height="60" as="geometry" />
        </mxCell>
        <mxCell id="PkPAuHADQwBoovgRxsWc-20" style="edgeStyle=orthogonalEdgeStyle;rounded=0;orthogonalLoop=1;jettySize=auto;html=1;exitX=0.5;exitY=1;exitDx=0;exitDy=0;entryX=0.5;entryY=0;entryDx=0;entryDy=0;" parent="1" source="PkPAuHADQwBoovgRxsWc-41" target="PkPAuHADQwBoovgRxsWc-9" edge="1">
          <mxGeometry relative="1" as="geometry" />
        </mxCell>
        <mxCell id="PkPAuHADQwBoovgRxsWc-7" value="INPUT guess" style="shape=parallelogram;perimeter=parallelogramPerimeter;whiteSpace=wrap;html=1;fixedSize=1;" parent="1" vertex="1">
          <mxGeometry x="365" y="490" width="120" height="60" as="geometry" />
        </mxCell>
        <mxCell id="PkPAuHADQwBoovgRxsWc-21" style="edgeStyle=orthogonalEdgeStyle;rounded=0;orthogonalLoop=1;jettySize=auto;html=1;exitX=1;exitY=0.5;exitDx=0;exitDy=0;entryX=0;entryY=0.5;entryDx=0;entryDy=0;" parent="1" source="PkPAuHADQwBoovgRxsWc-9" target="PkPAuHADQwBoovgRxsWc-10" edge="1">
          <mxGeometry relative="1" as="geometry" />
        </mxCell>
        <mxCell id="PkPAuHADQwBoovgRxsWc-22" style="edgeStyle=orthogonalEdgeStyle;rounded=0;orthogonalLoop=1;jettySize=auto;html=1;exitX=0.5;exitY=1;exitDx=0;exitDy=0;entryX=0.5;entryY=0;entryDx=0;entryDy=0;" parent="1" source="PkPAuHADQwBoovgRxsWc-9" target="PkPAuHADQwBoovgRxsWc-11" edge="1">
          <mxGeometry relative="1" as="geometry" />
        </mxCell>
        <mxCell id="PkPAuHADQwBoovgRxsWc-9" value="IF guess &amp;gt; GUESS_N" style="rhombus;whiteSpace=wrap;html=1;" parent="1" vertex="1">
          <mxGeometry x="385" y="720" width="80" height="80" as="geometry" />
        </mxCell>
        <mxCell id="PkPAuHADQwBoovgRxsWc-84" style="edgeStyle=orthogonalEdgeStyle;rounded=0;orthogonalLoop=1;jettySize=auto;html=1;exitX=1;exitY=0.5;exitDx=0;exitDy=0;" parent="1" source="PkPAuHADQwBoovgRxsWc-10" target="PkPAuHADQwBoovgRxsWc-81" edge="1">
          <mxGeometry relative="1" as="geometry">
            <Array as="points">
              <mxPoint x="750" y="760" />
              <mxPoint x="750" y="970" />
            </Array>
          </mxGeometry>
        </mxCell>
        <mxCell id="PkPAuHADQwBoovgRxsWc-10" value="PRINT &quot;Too high!&quot;" style="shape=parallelogram;perimeter=parallelogramPerimeter;whiteSpace=wrap;html=1;fixedSize=1;" parent="1" vertex="1">
          <mxGeometry x="510" y="740" width="150" height="40" as="geometry" />
        </mxCell>
        <mxCell id="PkPAuHADQwBoovgRxsWc-23" style="edgeStyle=orthogonalEdgeStyle;rounded=0;orthogonalLoop=1;jettySize=auto;html=1;exitX=1;exitY=0.5;exitDx=0;exitDy=0;entryX=0;entryY=0.5;entryDx=0;entryDy=0;" parent="1" source="PkPAuHADQwBoovgRxsWc-11" target="PkPAuHADQwBoovgRxsWc-12" edge="1">
          <mxGeometry relative="1" as="geometry" />
        </mxCell>
        <mxCell id="PkPAuHADQwBoovgRxsWc-82" value="" style="edgeStyle=orthogonalEdgeStyle;rounded=0;orthogonalLoop=1;jettySize=auto;html=1;" parent="1" source="PkPAuHADQwBoovgRxsWc-11" target="PkPAuHADQwBoovgRxsWc-81" edge="1">
          <mxGeometry relative="1" as="geometry" />
        </mxCell>
        <mxCell id="PkPAuHADQwBoovgRxsWc-11" value="IF guess &amp;lt; GUESS_N" style="rhombus;whiteSpace=wrap;html=1;" parent="1" vertex="1">
          <mxGeometry x="385" y="820" width="80" height="80" as="geometry" />
        </mxCell>
        <mxCell id="PkPAuHADQwBoovgRxsWc-85" style="edgeStyle=orthogonalEdgeStyle;rounded=0;orthogonalLoop=1;jettySize=auto;html=1;exitX=1;exitY=0.5;exitDx=0;exitDy=0;" parent="1" source="PkPAuHADQwBoovgRxsWc-12" target="PkPAuHADQwBoovgRxsWc-81" edge="1">
          <mxGeometry relative="1" as="geometry">
            <Array as="points">
              <mxPoint x="700" y="860" />
              <mxPoint x="700" y="970" />
            </Array>
          </mxGeometry>
        </mxCell>
        <mxCell id="PkPAuHADQwBoovgRxsWc-12" value="PRINT &quot;Too low!&quot;" style="shape=parallelogram;perimeter=parallelogramPerimeter;whiteSpace=wrap;html=1;fixedSize=1;" parent="1" vertex="1">
          <mxGeometry x="505" y="840" width="155" height="40" as="geometry" />
        </mxCell>
        <mxCell id="PkPAuHADQwBoovgRxsWc-25" style="edgeStyle=orthogonalEdgeStyle;rounded=0;orthogonalLoop=1;jettySize=auto;html=1;exitX=0.5;exitY=1;exitDx=0;exitDy=0;entryX=0.5;entryY=0;entryDx=0;entryDy=0;" parent="1" source="PkPAuHADQwBoovgRxsWc-13" target="PkPAuHADQwBoovgRxsWc-14" edge="1">
          <mxGeometry relative="1" as="geometry" />
        </mxCell>
        <mxCell id="PkPAuHADQwBoovgRxsWc-27" style="edgeStyle=orthogonalEdgeStyle;rounded=0;orthogonalLoop=1;jettySize=auto;html=1;exitX=0;exitY=0.5;exitDx=0;exitDy=0;" parent="1" source="PkPAuHADQwBoovgRxsWc-13" edge="1">
          <mxGeometry relative="1" as="geometry">
            <mxPoint x="420" y="460" as="targetPoint" />
            <Array as="points">
              <mxPoint x="250" y="1112" />
              <mxPoint x="250" y="460" />
            </Array>
          </mxGeometry>
        </mxCell>
        <mxCell id="PkPAuHADQwBoovgRxsWc-13" value="IF guess == guessNum" style="rhombus;whiteSpace=wrap;html=1;" parent="1" vertex="1">
          <mxGeometry x="385" y="1072" width="80" height="80" as="geometry" />
        </mxCell>
        <mxCell id="PkPAuHADQwBoovgRxsWc-54" style="edgeStyle=orthogonalEdgeStyle;rounded=0;orthogonalLoop=1;jettySize=auto;html=1;exitX=0.5;exitY=1;exitDx=0;exitDy=0;entryX=0.5;entryY=0;entryDx=0;entryDy=0;" parent="1" source="PkPAuHADQwBoovgRxsWc-14" target="PkPAuHADQwBoovgRxsWc-52" edge="1">
          <mxGeometry relative="1" as="geometry" />
        </mxCell>
        <mxCell id="PkPAuHADQwBoovgRxsWc-14" value="PRINT &quot;Correct!&quot;" style="shape=parallelogram;perimeter=parallelogramPerimeter;whiteSpace=wrap;html=1;fixedSize=1;" parent="1" vertex="1">
          <mxGeometry x="350" y="1202" width="150" height="40" as="geometry" />
        </mxCell>
        <mxCell id="PkPAuHADQwBoovgRxsWc-15" value="End_NumberGuesser" style="ellipse;whiteSpace=wrap;html=1;" parent="1" vertex="1">
          <mxGeometry x="345" y="1880" width="160" height="60" as="geometry" />
        </mxCell>
        <mxCell id="PkPAuHADQwBoovgRxsWc-28" value="False" style="text;html=1;align=center;verticalAlign=middle;resizable=0;points=[];autosize=1;strokeColor=none;fillColor=none;" parent="1" vertex="1">
          <mxGeometry x="325" y="1080" width="50" height="30" as="geometry" />
        </mxCell>
        <mxCell id="PkPAuHADQwBoovgRxsWc-29" value="True" style="text;html=1;align=center;verticalAlign=middle;resizable=0;points=[];autosize=1;strokeColor=none;fillColor=none;" parent="1" vertex="1">
          <mxGeometry x="425" y="1150" width="50" height="30" as="geometry" />
        </mxCell>
        <mxCell id="PkPAuHADQwBoovgRxsWc-30" value="True" style="text;html=1;align=center;verticalAlign=middle;resizable=0;points=[];autosize=1;strokeColor=none;fillColor=none;" parent="1" vertex="1">
          <mxGeometry x="455" y="728" width="50" height="30" as="geometry" />
        </mxCell>
        <mxCell id="PkPAuHADQwBoovgRxsWc-31" value="False" style="text;html=1;align=center;verticalAlign=middle;resizable=0;points=[];autosize=1;strokeColor=none;fillColor=none;" parent="1" vertex="1">
          <mxGeometry x="425" y="788" width="50" height="30" as="geometry" />
        </mxCell>
        <mxCell id="PkPAuHADQwBoovgRxsWc-32" value="True" style="text;html=1;align=center;verticalAlign=middle;resizable=0;points=[];autosize=1;strokeColor=none;fillColor=none;" parent="1" vertex="1">
          <mxGeometry x="455" y="838" width="50" height="30" as="geometry" />
        </mxCell>
        <mxCell id="PkPAuHADQwBoovgRxsWc-33" value="False" style="text;html=1;align=center;verticalAlign=middle;resizable=0;points=[];autosize=1;strokeColor=none;fillColor=none;" parent="1" vertex="1">
          <mxGeometry x="425" y="900" width="50" height="30" as="geometry" />
        </mxCell>
        <mxCell id="PkPAuHADQwBoovgRxsWc-38" value="" style="edgeStyle=orthogonalEdgeStyle;rounded=0;orthogonalLoop=1;jettySize=auto;html=1;exitX=0.5;exitY=1;exitDx=0;exitDy=0;entryX=0.5;entryY=0;entryDx=0;entryDy=0;" parent="1" source="PkPAuHADQwBoovgRxsWc-5" target="PkPAuHADQwBoovgRxsWc-39" edge="1">
          <mxGeometry relative="1" as="geometry">
            <mxPoint x="425" y="240" as="sourcePoint" />
            <mxPoint x="425" y="380" as="targetPoint" />
          </mxGeometry>
        </mxCell>
        <mxCell id="PkPAuHADQwBoovgRxsWc-39" value="tries = 0" style="rounded=0;whiteSpace=wrap;html=1;" parent="1" vertex="1">
          <mxGeometry x="365" y="280" width="120" height="40" as="geometry" />
        </mxCell>
        <mxCell id="PkPAuHADQwBoovgRxsWc-40" value="" style="edgeStyle=orthogonalEdgeStyle;rounded=0;orthogonalLoop=1;jettySize=auto;html=1;exitX=0.5;exitY=1;exitDx=0;exitDy=0;entryX=0.5;entryY=0;entryDx=0;entryDy=0;" parent="1" source="PkPAuHADQwBoovgRxsWc-7" target="PkPAuHADQwBoovgRxsWc-41" edge="1">
          <mxGeometry relative="1" as="geometry">
            <mxPoint x="425" y="550" as="sourcePoint" />
            <mxPoint x="425" y="720" as="targetPoint" />
          </mxGeometry>
        </mxCell>
        <mxCell id="PkPAuHADQwBoovgRxsWc-43" style="edgeStyle=orthogonalEdgeStyle;rounded=0;orthogonalLoop=1;jettySize=auto;html=1;exitX=1;exitY=0.5;exitDx=0;exitDy=0;entryX=0;entryY=0.5;entryDx=0;entryDy=0;" parent="1" source="PkPAuHADQwBoovgRxsWc-41" target="PkPAuHADQwBoovgRxsWc-42" edge="1">
          <mxGeometry relative="1" as="geometry" />
        </mxCell>
        <mxCell id="PkPAuHADQwBoovgRxsWc-41" value="IF not(1 &amp;lt;= guess &amp;lt;= 100)" style="shape=rhombus;perimeter=parallelogramPerimeter;whiteSpace=wrap;html=1;fixedSize=1;" parent="1" vertex="1">
          <mxGeometry x="380" y="570" width="91" height="90" as="geometry" />
        </mxCell>
        <mxCell id="PkPAuHADQwBoovgRxsWc-83" style="edgeStyle=orthogonalEdgeStyle;rounded=0;orthogonalLoop=1;jettySize=auto;html=1;exitX=1;exitY=0.5;exitDx=0;exitDy=0;" parent="1" source="PkPAuHADQwBoovgRxsWc-42" target="PkPAuHADQwBoovgRxsWc-81" edge="1">
          <mxGeometry relative="1" as="geometry">
            <Array as="points">
              <mxPoint x="790" y="970" />
            </Array>
          </mxGeometry>
        </mxCell>
        <mxCell id="PkPAuHADQwBoovgRxsWc-42" value="PRINT &quot;Please enter a number between 1 and 100!&quot;" style="shape=parallelogram;perimeter=parallelogramPerimeter;whiteSpace=wrap;html=1;fixedSize=1;" parent="1" vertex="1">
          <mxGeometry x="500" y="585" width="300" height="60" as="geometry" />
        </mxCell>
        <mxCell id="PkPAuHADQwBoovgRxsWc-46" style="edgeStyle=orthogonalEdgeStyle;rounded=0;orthogonalLoop=1;jettySize=auto;html=1;exitX=0.5;exitY=1;exitDx=0;exitDy=0;entryX=0.5;entryY=0;entryDx=0;entryDy=0;" parent="1" source="PkPAuHADQwBoovgRxsWc-44" target="PkPAuHADQwBoovgRxsWc-13" edge="1">
          <mxGeometry relative="1" as="geometry" />
        </mxCell>
        <mxCell id="PkPAuHADQwBoovgRxsWc-44" value="tries += 1" style="rounded=0;whiteSpace=wrap;html=1;" parent="1" vertex="1">
          <mxGeometry x="365.5" y="1000" width="120" height="40" as="geometry" />
        </mxCell>
        <mxCell id="PkPAuHADQwBoovgRxsWc-50" value="True" style="text;html=1;align=center;verticalAlign=middle;resizable=0;points=[];autosize=1;strokeColor=none;fillColor=none;" parent="1" vertex="1">
          <mxGeometry x="455" y="578" width="50" height="30" as="geometry" />
        </mxCell>
        <mxCell id="PkPAuHADQwBoovgRxsWc-51" value="False" style="text;html=1;align=center;verticalAlign=middle;resizable=0;points=[];autosize=1;strokeColor=none;fillColor=none;" parent="1" vertex="1">
          <mxGeometry x="425" y="660" width="50" height="30" as="geometry" />
        </mxCell>
        <mxCell id="PkPAuHADQwBoovgRxsWc-59" style="edgeStyle=orthogonalEdgeStyle;rounded=0;orthogonalLoop=1;jettySize=auto;html=1;exitX=0.5;exitY=1;exitDx=0;exitDy=0;entryX=0.5;entryY=0;entryDx=0;entryDy=0;" parent="1" source="PkPAuHADQwBoovgRxsWc-52" target="PkPAuHADQwBoovgRxsWc-58" edge="1">
          <mxGeometry relative="1" as="geometry" />
        </mxCell>
        <mxCell id="PkPAuHADQwBoovgRxsWc-52" value="PRINT name &quot;, it took you &quot; tries &quot;tries to guess the right number!&quot;" style="shape=parallelogram;perimeter=parallelogramPerimeter;whiteSpace=wrap;html=1;fixedSize=1;" parent="1" vertex="1">
          <mxGeometry x="290" y="1270" width="270" height="60" as="geometry" />
        </mxCell>
        <mxCell id="PkPAuHADQwBoovgRxsWc-64" style="edgeStyle=orthogonalEdgeStyle;rounded=0;orthogonalLoop=1;jettySize=auto;html=1;exitX=1;exitY=0.5;exitDx=0;exitDy=0;entryX=0;entryY=0.5;entryDx=0;entryDy=0;" parent="1" source="PkPAuHADQwBoovgRxsWc-58" target="PkPAuHADQwBoovgRxsWc-60" edge="1">
          <mxGeometry relative="1" as="geometry" />
        </mxCell>
        <mxCell id="PkPAuHADQwBoovgRxsWc-69" style="edgeStyle=orthogonalEdgeStyle;rounded=0;orthogonalLoop=1;jettySize=auto;html=1;exitX=0;exitY=0.5;exitDx=0;exitDy=0;entryX=0.5;entryY=0;entryDx=0;entryDy=0;" parent="1" source="PkPAuHADQwBoovgRxsWc-58" target="PkPAuHADQwBoovgRxsWc-61" edge="1">
          <mxGeometry relative="1" as="geometry" />
        </mxCell>
        <mxCell id="PkPAuHADQwBoovgRxsWc-58" value="IF 1 &amp;lt;= tries &amp;lt;= 3" style="rhombus;whiteSpace=wrap;html=1;" parent="1" vertex="1">
          <mxGeometry x="385" y="1370" width="80" height="80" as="geometry" />
        </mxCell>
        <mxCell id="PkPAuHADQwBoovgRxsWc-60" value="PRINT &quot;Amazing guessing skills, &quot; name &quot;! Would you like to play again?&quot;" style="shape=parallelogram;perimeter=parallelogramPerimeter;whiteSpace=wrap;html=1;fixedSize=1;" parent="1" vertex="1">
          <mxGeometry x="560" y="1380" width="240" height="60" as="geometry" />
        </mxCell>
        <mxCell id="PkPAuHADQwBoovgRxsWc-70" style="edgeStyle=orthogonalEdgeStyle;rounded=0;orthogonalLoop=1;jettySize=auto;html=1;exitX=1;exitY=0.5;exitDx=0;exitDy=0;entryX=0.5;entryY=0;entryDx=0;entryDy=0;" parent="1" source="PkPAuHADQwBoovgRxsWc-61" target="PkPAuHADQwBoovgRxsWc-62" edge="1">
          <mxGeometry relative="1" as="geometry" />
        </mxCell>
        <mxCell id="PkPAuHADQwBoovgRxsWc-71" style="edgeStyle=orthogonalEdgeStyle;rounded=0;orthogonalLoop=1;jettySize=auto;html=1;exitX=0;exitY=0.5;exitDx=0;exitDy=0;entryX=0.5;entryY=0;entryDx=0;entryDy=0;" parent="1" source="PkPAuHADQwBoovgRxsWc-61" target="PkPAuHADQwBoovgRxsWc-68" edge="1">
          <mxGeometry relative="1" as="geometry" />
        </mxCell>
        <mxCell id="PkPAuHADQwBoovgRxsWc-61" value="IF 4 &amp;lt;= tries &amp;lt;= 6" style="rhombus;whiteSpace=wrap;html=1;" parent="1" vertex="1">
          <mxGeometry x="190" y="1430" width="80" height="80" as="geometry" />
        </mxCell>
        <mxCell id="PkPAuHADQwBoovgRxsWc-78" style="edgeStyle=orthogonalEdgeStyle;rounded=0;orthogonalLoop=1;jettySize=auto;html=1;exitX=0.5;exitY=1;exitDx=0;exitDy=0;" parent="1" source="PkPAuHADQwBoovgRxsWc-62" edge="1">
          <mxGeometry relative="1" as="geometry">
            <mxPoint x="425" y="1740" as="targetPoint" />
          </mxGeometry>
        </mxCell>
        <mxCell id="PkPAuHADQwBoovgRxsWc-62" value="PRINT&amp;nbsp;Nice persistence, &quot; name &quot;!You&#39;ve got it after a few tries. Would you like to play again?&quot;" style="shape=parallelogram;perimeter=parallelogramPerimeter;whiteSpace=wrap;html=1;fixedSize=1;" parent="1" vertex="1">
          <mxGeometry x="290" y="1500" width="270" height="60" as="geometry" />
        </mxCell>
        <mxCell id="PkPAuHADQwBoovgRxsWc-68" value="PRINT &quot;You can do better &quot; name &quot;! Try playing again.&quot;" style="shape=parallelogram;perimeter=parallelogramPerimeter;whiteSpace=wrap;html=1;fixedSize=1;" parent="1" vertex="1">
          <mxGeometry x="145" y="1630" width="230" height="60" as="geometry" />
        </mxCell>
        <mxCell id="PkPAuHADQwBoovgRxsWc-72" value="False" style="text;html=1;align=center;verticalAlign=middle;resizable=0;points=[];autosize=1;strokeColor=none;fillColor=none;" parent="1" vertex="1">
          <mxGeometry x="110" y="1490" width="50" height="30" as="geometry" />
        </mxCell>
        <mxCell id="PkPAuHADQwBoovgRxsWc-73" value="True" style="text;html=1;align=center;verticalAlign=middle;resizable=0;points=[];autosize=1;strokeColor=none;fillColor=none;" parent="1" vertex="1">
          <mxGeometry x="270" y="1440" width="50" height="30" as="geometry" />
        </mxCell>
        <mxCell id="PkPAuHADQwBoovgRxsWc-74" value="False" style="text;html=1;align=center;verticalAlign=middle;resizable=0;points=[];autosize=1;strokeColor=none;fillColor=none;" parent="1" vertex="1">
          <mxGeometry x="325" y="1380" width="50" height="30" as="geometry" />
        </mxCell>
        <mxCell id="PkPAuHADQwBoovgRxsWc-75" value="True" style="text;html=1;align=center;verticalAlign=middle;resizable=0;points=[];autosize=1;strokeColor=none;fillColor=none;" parent="1" vertex="1">
          <mxGeometry x="475" y="1378" width="50" height="30" as="geometry" />
        </mxCell>
        <mxCell id="PkPAuHADQwBoovgRxsWc-80" value="" style="edgeStyle=orthogonalEdgeStyle;rounded=0;orthogonalLoop=1;jettySize=auto;html=1;" parent="1" source="PkPAuHADQwBoovgRxsWc-76" target="PkPAuHADQwBoovgRxsWc-15" edge="1">
          <mxGeometry relative="1" as="geometry" />
        </mxCell>
        <mxCell id="PkPAuHADQwBoovgRxsWc-76" value="" style="shape=waypoint;sketch=0;size=6;pointerEvents=1;points=[];fillColor=none;resizable=0;rotatable=0;perimeter=centerPerimeter;snapToPoint=1;" parent="1" vertex="1">
          <mxGeometry x="415" y="1730" width="20" height="20" as="geometry" />
        </mxCell>
        <mxCell id="PkPAuHADQwBoovgRxsWc-77" style="edgeStyle=orthogonalEdgeStyle;rounded=0;orthogonalLoop=1;jettySize=auto;html=1;exitX=0.5;exitY=1;exitDx=0;exitDy=0;entryX=0.25;entryY=0.3;entryDx=0;entryDy=0;entryPerimeter=0;" parent="1" source="PkPAuHADQwBoovgRxsWc-68" target="PkPAuHADQwBoovgRxsWc-76" edge="1">
          <mxGeometry relative="1" as="geometry">
            <Array as="points">
              <mxPoint x="260" y="1740" />
            </Array>
          </mxGeometry>
        </mxCell>
        <mxCell id="PkPAuHADQwBoovgRxsWc-79" style="edgeStyle=orthogonalEdgeStyle;rounded=0;orthogonalLoop=1;jettySize=auto;html=1;exitX=0.5;exitY=1;exitDx=0;exitDy=0;entryX=0.7;entryY=0.25;entryDx=0;entryDy=0;entryPerimeter=0;" parent="1" source="PkPAuHADQwBoovgRxsWc-60" target="PkPAuHADQwBoovgRxsWc-76" edge="1">
          <mxGeometry relative="1" as="geometry">
            <Array as="points">
              <mxPoint x="680" y="1740" />
            </Array>
          </mxGeometry>
        </mxCell>
        <mxCell id="PkPAuHADQwBoovgRxsWc-87" value="" style="edgeStyle=orthogonalEdgeStyle;rounded=0;orthogonalLoop=1;jettySize=auto;html=1;" parent="1" source="PkPAuHADQwBoovgRxsWc-81" target="PkPAuHADQwBoovgRxsWc-44" edge="1">
          <mxGeometry relative="1" as="geometry" />
        </mxCell>
        <mxCell id="PkPAuHADQwBoovgRxsWc-81" value="" style="shape=waypoint;sketch=0;size=6;pointerEvents=1;points=[];fillColor=none;resizable=0;rotatable=0;perimeter=centerPerimeter;snapToPoint=1;" parent="1" vertex="1">
          <mxGeometry x="415" y="960" width="20" height="20" as="geometry" />
        </mxCell>
        <mxCell id="PkPAuHADQwBoovgRxsWc-86" value="Here, tries will be more than 6" style="text;html=1;align=center;verticalAlign=middle;resizable=0;points=[];autosize=1;strokeColor=none;fillColor=none;" parent="1" vertex="1">
          <mxGeometry x="-70" y="1548" width="180" height="30" as="geometry" />
        </mxCell>
      </root>
    </mxGraphModel>
  </diagram>
  <diagram name="Page-2" id="t-OPneK1iyiUwjHWRDGG">
    <mxGraphModel dx="1859" dy="573" grid="1" gridSize="10" guides="1" tooltips="1" connect="1" arrows="1" fold="1" page="1" pageScale="1" pageWidth="850" pageHeight="1100" math="0" shadow="0">
      <root>
        <mxCell id="RYUnOLGqdLZXHsh0iabH-0" />
        <mxCell id="RYUnOLGqdLZXHsh0iabH-1" parent="RYUnOLGqdLZXHsh0iabH-0" />
        <mxCell id="RYUnOLGqdLZXHsh0iabH-2" style="edgeStyle=orthogonalEdgeStyle;rounded=0;orthogonalLoop=1;jettySize=auto;html=1;exitX=0.5;exitY=1;exitDx=0;exitDy=0;entryX=0.5;entryY=0;entryDx=0;entryDy=0;" parent="RYUnOLGqdLZXHsh0iabH-1" source="RYUnOLGqdLZXHsh0iabH-3" target="RYUnOLGqdLZXHsh0iabH-5" edge="1">
          <mxGeometry relative="1" as="geometry" />
        </mxCell>
        <mxCell id="RYUnOLGqdLZXHsh0iabH-3" value="Start_NumberGuesser" style="ellipse;whiteSpace=wrap;html=1;" parent="RYUnOLGqdLZXHsh0iabH-1" vertex="1">
          <mxGeometry x="345" y="20" width="160" height="60" as="geometry" />
        </mxCell>
        <mxCell id="RYUnOLGqdLZXHsh0iabH-4" style="edgeStyle=orthogonalEdgeStyle;rounded=0;orthogonalLoop=1;jettySize=auto;html=1;exitX=0.5;exitY=1;exitDx=0;exitDy=0;entryX=0.5;entryY=0;entryDx=0;entryDy=0;" parent="RYUnOLGqdLZXHsh0iabH-1" source="RYUnOLGqdLZXHsh0iabH-5" target="RYUnOLGqdLZXHsh0iabH-7" edge="1">
          <mxGeometry relative="1" as="geometry" />
        </mxCell>
        <mxCell id="RYUnOLGqdLZXHsh0iabH-5" value="INPUT name" style="shape=parallelogram;perimeter=parallelogramPerimeter;whiteSpace=wrap;html=1;fixedSize=1;" parent="RYUnOLGqdLZXHsh0iabH-1" vertex="1">
          <mxGeometry x="365" y="120" width="120" height="40" as="geometry" />
        </mxCell>
        <mxCell id="RYUnOLGqdLZXHsh0iabH-6" style="edgeStyle=orthogonalEdgeStyle;rounded=0;orthogonalLoop=1;jettySize=auto;html=1;exitX=0.5;exitY=1;exitDx=0;exitDy=0;entryX=0.5;entryY=0;entryDx=0;entryDy=0;" parent="RYUnOLGqdLZXHsh0iabH-1" source="RYUnOLGqdLZXHsh0iabH-35" target="RYUnOLGqdLZXHsh0iabH-9" edge="1">
          <mxGeometry relative="1" as="geometry" />
        </mxCell>
        <mxCell id="RYUnOLGqdLZXHsh0iabH-7" value="GUESS_N = 140" style="rounded=0;whiteSpace=wrap;html=1;" parent="RYUnOLGqdLZXHsh0iabH-1" vertex="1">
          <mxGeometry x="365" y="200" width="120" height="40" as="geometry" />
        </mxCell>
        <mxCell id="RYUnOLGqdLZXHsh0iabH-8" style="edgeStyle=orthogonalEdgeStyle;rounded=0;orthogonalLoop=1;jettySize=auto;html=1;exitX=0.5;exitY=1;exitDx=0;exitDy=0;entryX=0.5;entryY=0;entryDx=0;entryDy=0;" parent="RYUnOLGqdLZXHsh0iabH-1" source="RYUnOLGqdLZXHsh0iabH-9" target="RYUnOLGqdLZXHsh0iabH-11" edge="1">
          <mxGeometry relative="1" as="geometry" />
        </mxCell>
        <mxCell id="RYUnOLGqdLZXHsh0iabH-9" value="PRINT &quot;Hello, &quot; name &quot;I&#39;ve randomly chosen a number. Try to guess it!&quot;" style="shape=parallelogram;perimeter=parallelogramPerimeter;whiteSpace=wrap;html=1;fixedSize=1;" parent="RYUnOLGqdLZXHsh0iabH-1" vertex="1">
          <mxGeometry x="240" y="380" width="370" height="60" as="geometry" />
        </mxCell>
        <mxCell id="m8zP9kw5fJQLhVDgKk8R-9" style="edgeStyle=orthogonalEdgeStyle;rounded=0;orthogonalLoop=1;jettySize=auto;html=1;exitX=0.5;exitY=1;exitDx=0;exitDy=0;entryX=0.5;entryY=0;entryDx=0;entryDy=0;" parent="RYUnOLGqdLZXHsh0iabH-1" source="RYUnOLGqdLZXHsh0iabH-11" target="RYUnOLGqdLZXHsh0iabH-14" edge="1">
          <mxGeometry relative="1" as="geometry" />
        </mxCell>
        <mxCell id="RYUnOLGqdLZXHsh0iabH-11" value="INPUT guess" style="shape=parallelogram;perimeter=parallelogramPerimeter;whiteSpace=wrap;html=1;fixedSize=1;" parent="RYUnOLGqdLZXHsh0iabH-1" vertex="1">
          <mxGeometry x="365" y="490" width="120" height="60" as="geometry" />
        </mxCell>
        <mxCell id="RYUnOLGqdLZXHsh0iabH-12" style="edgeStyle=orthogonalEdgeStyle;rounded=0;orthogonalLoop=1;jettySize=auto;html=1;exitX=1;exitY=0.5;exitDx=0;exitDy=0;entryX=0;entryY=0.5;entryDx=0;entryDy=0;" parent="RYUnOLGqdLZXHsh0iabH-1" source="RYUnOLGqdLZXHsh0iabH-14" target="RYUnOLGqdLZXHsh0iabH-16" edge="1">
          <mxGeometry relative="1" as="geometry" />
        </mxCell>
        <mxCell id="RYUnOLGqdLZXHsh0iabH-13" style="edgeStyle=orthogonalEdgeStyle;rounded=0;orthogonalLoop=1;jettySize=auto;html=1;exitX=0.5;exitY=1;exitDx=0;exitDy=0;entryX=0.5;entryY=0;entryDx=0;entryDy=0;" parent="RYUnOLGqdLZXHsh0iabH-1" source="RYUnOLGqdLZXHsh0iabH-14" target="RYUnOLGqdLZXHsh0iabH-19" edge="1">
          <mxGeometry relative="1" as="geometry" />
        </mxCell>
        <mxCell id="RYUnOLGqdLZXHsh0iabH-14" value="IF guess &amp;gt; GUESS_N" style="rhombus;whiteSpace=wrap;html=1;" parent="RYUnOLGqdLZXHsh0iabH-1" vertex="1">
          <mxGeometry x="385" y="620" width="80" height="80" as="geometry" />
        </mxCell>
        <mxCell id="RYUnOLGqdLZXHsh0iabH-15" style="edgeStyle=orthogonalEdgeStyle;rounded=0;orthogonalLoop=1;jettySize=auto;html=1;exitX=1;exitY=0.5;exitDx=0;exitDy=0;" parent="RYUnOLGqdLZXHsh0iabH-1" source="RYUnOLGqdLZXHsh0iabH-16" target="RYUnOLGqdLZXHsh0iabH-66" edge="1">
          <mxGeometry relative="1" as="geometry">
            <Array as="points">
              <mxPoint x="750" y="660" />
              <mxPoint x="750" y="870" />
            </Array>
          </mxGeometry>
        </mxCell>
        <mxCell id="RYUnOLGqdLZXHsh0iabH-16" value="PRINT &quot;Too high!&quot;" style="shape=parallelogram;perimeter=parallelogramPerimeter;whiteSpace=wrap;html=1;fixedSize=1;" parent="RYUnOLGqdLZXHsh0iabH-1" vertex="1">
          <mxGeometry x="510" y="640" width="150" height="40" as="geometry" />
        </mxCell>
        <mxCell id="RYUnOLGqdLZXHsh0iabH-17" style="edgeStyle=orthogonalEdgeStyle;rounded=0;orthogonalLoop=1;jettySize=auto;html=1;exitX=1;exitY=0.5;exitDx=0;exitDy=0;entryX=0;entryY=0.5;entryDx=0;entryDy=0;" parent="RYUnOLGqdLZXHsh0iabH-1" source="RYUnOLGqdLZXHsh0iabH-19" target="RYUnOLGqdLZXHsh0iabH-21" edge="1">
          <mxGeometry relative="1" as="geometry" />
        </mxCell>
        <mxCell id="RYUnOLGqdLZXHsh0iabH-18" value="" style="edgeStyle=orthogonalEdgeStyle;rounded=0;orthogonalLoop=1;jettySize=auto;html=1;" parent="RYUnOLGqdLZXHsh0iabH-1" source="RYUnOLGqdLZXHsh0iabH-19" target="RYUnOLGqdLZXHsh0iabH-66" edge="1">
          <mxGeometry relative="1" as="geometry" />
        </mxCell>
        <mxCell id="RYUnOLGqdLZXHsh0iabH-19" value="IF guess &amp;lt; GUESS_N" style="rhombus;whiteSpace=wrap;html=1;" parent="RYUnOLGqdLZXHsh0iabH-1" vertex="1">
          <mxGeometry x="385" y="720" width="80" height="80" as="geometry" />
        </mxCell>
        <mxCell id="RYUnOLGqdLZXHsh0iabH-20" style="edgeStyle=orthogonalEdgeStyle;rounded=0;orthogonalLoop=1;jettySize=auto;html=1;exitX=1;exitY=0.5;exitDx=0;exitDy=0;" parent="RYUnOLGqdLZXHsh0iabH-1" source="RYUnOLGqdLZXHsh0iabH-21" target="RYUnOLGqdLZXHsh0iabH-66" edge="1">
          <mxGeometry relative="1" as="geometry">
            <Array as="points">
              <mxPoint x="700" y="760" />
              <mxPoint x="700" y="870" />
            </Array>
          </mxGeometry>
        </mxCell>
        <mxCell id="RYUnOLGqdLZXHsh0iabH-21" value="PRINT &quot;Too low!&quot;" style="shape=parallelogram;perimeter=parallelogramPerimeter;whiteSpace=wrap;html=1;fixedSize=1;" parent="RYUnOLGqdLZXHsh0iabH-1" vertex="1">
          <mxGeometry x="505" y="740" width="155" height="40" as="geometry" />
        </mxCell>
        <mxCell id="RYUnOLGqdLZXHsh0iabH-22" style="edgeStyle=orthogonalEdgeStyle;rounded=0;orthogonalLoop=1;jettySize=auto;html=1;exitX=0.5;exitY=1;exitDx=0;exitDy=0;entryX=0.5;entryY=0;entryDx=0;entryDy=0;" parent="RYUnOLGqdLZXHsh0iabH-1" source="RYUnOLGqdLZXHsh0iabH-24" target="RYUnOLGqdLZXHsh0iabH-26" edge="1">
          <mxGeometry relative="1" as="geometry" />
        </mxCell>
        <mxCell id="RYUnOLGqdLZXHsh0iabH-23" style="edgeStyle=orthogonalEdgeStyle;rounded=0;orthogonalLoop=1;jettySize=auto;html=1;exitX=0;exitY=0.5;exitDx=0;exitDy=0;" parent="RYUnOLGqdLZXHsh0iabH-1" source="RYUnOLGqdLZXHsh0iabH-24" edge="1">
          <mxGeometry relative="1" as="geometry">
            <mxPoint x="420" y="460" as="targetPoint" />
            <Array as="points">
              <mxPoint x="250" y="1440" />
              <mxPoint x="250" y="460" />
            </Array>
          </mxGeometry>
        </mxCell>
        <mxCell id="RYUnOLGqdLZXHsh0iabH-24" value="IF guess == guessNum" style="rhombus;whiteSpace=wrap;html=1;" parent="RYUnOLGqdLZXHsh0iabH-1" vertex="1">
          <mxGeometry x="385" y="1400" width="80" height="80" as="geometry" />
        </mxCell>
        <mxCell id="RYUnOLGqdLZXHsh0iabH-25" style="edgeStyle=orthogonalEdgeStyle;rounded=0;orthogonalLoop=1;jettySize=auto;html=1;exitX=0.5;exitY=1;exitDx=0;exitDy=0;entryX=0.5;entryY=0;entryDx=0;entryDy=0;" parent="RYUnOLGqdLZXHsh0iabH-1" source="RYUnOLGqdLZXHsh0iabH-26" target="RYUnOLGqdLZXHsh0iabH-46" edge="1">
          <mxGeometry relative="1" as="geometry" />
        </mxCell>
        <mxCell id="RYUnOLGqdLZXHsh0iabH-26" value="PRINT &quot;Correct!&quot;" style="shape=parallelogram;perimeter=parallelogramPerimeter;whiteSpace=wrap;html=1;fixedSize=1;" parent="RYUnOLGqdLZXHsh0iabH-1" vertex="1">
          <mxGeometry x="350" y="1530" width="150" height="40" as="geometry" />
        </mxCell>
        <mxCell id="RYUnOLGqdLZXHsh0iabH-27" value="End_NumberGuesser" style="ellipse;whiteSpace=wrap;html=1;" parent="RYUnOLGqdLZXHsh0iabH-1" vertex="1">
          <mxGeometry x="345.5" y="2180" width="160" height="60" as="geometry" />
        </mxCell>
        <mxCell id="RYUnOLGqdLZXHsh0iabH-28" value="False" style="text;html=1;align=center;verticalAlign=middle;resizable=0;points=[];autosize=1;strokeColor=none;fillColor=none;" parent="RYUnOLGqdLZXHsh0iabH-1" vertex="1">
          <mxGeometry x="325" y="1408" width="50" height="30" as="geometry" />
        </mxCell>
        <mxCell id="RYUnOLGqdLZXHsh0iabH-29" value="True" style="text;html=1;align=center;verticalAlign=middle;resizable=0;points=[];autosize=1;strokeColor=none;fillColor=none;" parent="RYUnOLGqdLZXHsh0iabH-1" vertex="1">
          <mxGeometry x="425" y="1478" width="50" height="30" as="geometry" />
        </mxCell>
        <mxCell id="RYUnOLGqdLZXHsh0iabH-30" value="True" style="text;html=1;align=center;verticalAlign=middle;resizable=0;points=[];autosize=1;strokeColor=none;fillColor=none;" parent="RYUnOLGqdLZXHsh0iabH-1" vertex="1">
          <mxGeometry x="455" y="628" width="50" height="30" as="geometry" />
        </mxCell>
        <mxCell id="RYUnOLGqdLZXHsh0iabH-31" value="False" style="text;html=1;align=center;verticalAlign=middle;resizable=0;points=[];autosize=1;strokeColor=none;fillColor=none;" parent="RYUnOLGqdLZXHsh0iabH-1" vertex="1">
          <mxGeometry x="425" y="688" width="50" height="30" as="geometry" />
        </mxCell>
        <mxCell id="RYUnOLGqdLZXHsh0iabH-32" value="True" style="text;html=1;align=center;verticalAlign=middle;resizable=0;points=[];autosize=1;strokeColor=none;fillColor=none;" parent="RYUnOLGqdLZXHsh0iabH-1" vertex="1">
          <mxGeometry x="455" y="738" width="50" height="30" as="geometry" />
        </mxCell>
        <mxCell id="RYUnOLGqdLZXHsh0iabH-33" value="False" style="text;html=1;align=center;verticalAlign=middle;resizable=0;points=[];autosize=1;strokeColor=none;fillColor=none;" parent="RYUnOLGqdLZXHsh0iabH-1" vertex="1">
          <mxGeometry x="425" y="800" width="50" height="30" as="geometry" />
        </mxCell>
        <mxCell id="RYUnOLGqdLZXHsh0iabH-34" value="" style="edgeStyle=orthogonalEdgeStyle;rounded=0;orthogonalLoop=1;jettySize=auto;html=1;exitX=0.5;exitY=1;exitDx=0;exitDy=0;entryX=0.5;entryY=0;entryDx=0;entryDy=0;" parent="RYUnOLGqdLZXHsh0iabH-1" source="RYUnOLGqdLZXHsh0iabH-7" target="RYUnOLGqdLZXHsh0iabH-35" edge="1">
          <mxGeometry relative="1" as="geometry">
            <mxPoint x="425" y="240" as="sourcePoint" />
            <mxPoint x="425" y="380" as="targetPoint" />
          </mxGeometry>
        </mxCell>
        <mxCell id="RYUnOLGqdLZXHsh0iabH-35" value="tries = 0" style="rounded=0;whiteSpace=wrap;html=1;" parent="RYUnOLGqdLZXHsh0iabH-1" vertex="1">
          <mxGeometry x="365" y="280" width="120" height="40" as="geometry" />
        </mxCell>
        <mxCell id="RYUnOLGqdLZXHsh0iabH-37" style="edgeStyle=orthogonalEdgeStyle;rounded=0;orthogonalLoop=1;jettySize=auto;html=1;exitX=1;exitY=0.5;exitDx=0;exitDy=0;entryX=0;entryY=0.5;entryDx=0;entryDy=0;" parent="RYUnOLGqdLZXHsh0iabH-1" edge="1">
          <mxGeometry relative="1" as="geometry">
            <mxPoint x="461" y="615" as="sourcePoint" />
          </mxGeometry>
        </mxCell>
        <mxCell id="RYUnOLGqdLZXHsh0iabH-41" style="edgeStyle=orthogonalEdgeStyle;rounded=0;orthogonalLoop=1;jettySize=auto;html=1;exitX=0.5;exitY=1;exitDx=0;exitDy=0;entryX=0.5;entryY=0;entryDx=0;entryDy=0;" parent="RYUnOLGqdLZXHsh0iabH-1" source="m8zP9kw5fJQLhVDgKk8R-5" target="RYUnOLGqdLZXHsh0iabH-24" edge="1">
          <mxGeometry relative="1" as="geometry" />
        </mxCell>
        <mxCell id="RYUnOLGqdLZXHsh0iabH-42" value="tries += 1" style="rounded=0;whiteSpace=wrap;html=1;" parent="RYUnOLGqdLZXHsh0iabH-1" vertex="1">
          <mxGeometry x="365.5" y="900" width="120" height="40" as="geometry" />
        </mxCell>
        <mxCell id="RYUnOLGqdLZXHsh0iabH-45" style="edgeStyle=orthogonalEdgeStyle;rounded=0;orthogonalLoop=1;jettySize=auto;html=1;exitX=0.5;exitY=1;exitDx=0;exitDy=0;entryX=0.5;entryY=0;entryDx=0;entryDy=0;" parent="RYUnOLGqdLZXHsh0iabH-1" source="RYUnOLGqdLZXHsh0iabH-46" target="RYUnOLGqdLZXHsh0iabH-49" edge="1">
          <mxGeometry relative="1" as="geometry" />
        </mxCell>
        <mxCell id="RYUnOLGqdLZXHsh0iabH-46" value="PRINT name &quot;, it took you &quot; tries &quot;tries to guess the right number!&quot;" style="shape=parallelogram;perimeter=parallelogramPerimeter;whiteSpace=wrap;html=1;fixedSize=1;" parent="RYUnOLGqdLZXHsh0iabH-1" vertex="1">
          <mxGeometry x="290" y="1598" width="270" height="60" as="geometry" />
        </mxCell>
        <mxCell id="RYUnOLGqdLZXHsh0iabH-47" style="edgeStyle=orthogonalEdgeStyle;rounded=0;orthogonalLoop=1;jettySize=auto;html=1;exitX=1;exitY=0.5;exitDx=0;exitDy=0;entryX=0;entryY=0.5;entryDx=0;entryDy=0;" parent="RYUnOLGqdLZXHsh0iabH-1" source="RYUnOLGqdLZXHsh0iabH-49" target="RYUnOLGqdLZXHsh0iabH-50" edge="1">
          <mxGeometry relative="1" as="geometry" />
        </mxCell>
        <mxCell id="RYUnOLGqdLZXHsh0iabH-48" style="edgeStyle=orthogonalEdgeStyle;rounded=0;orthogonalLoop=1;jettySize=auto;html=1;exitX=0;exitY=0.5;exitDx=0;exitDy=0;entryX=0.5;entryY=0;entryDx=0;entryDy=0;" parent="RYUnOLGqdLZXHsh0iabH-1" source="RYUnOLGqdLZXHsh0iabH-49" target="RYUnOLGqdLZXHsh0iabH-53" edge="1">
          <mxGeometry relative="1" as="geometry" />
        </mxCell>
        <mxCell id="RYUnOLGqdLZXHsh0iabH-49" value="IF 1 &amp;lt;= tries &amp;lt;= 3" style="rhombus;whiteSpace=wrap;html=1;" parent="RYUnOLGqdLZXHsh0iabH-1" vertex="1">
          <mxGeometry x="385" y="1698" width="80" height="80" as="geometry" />
        </mxCell>
        <mxCell id="RYUnOLGqdLZXHsh0iabH-50" value="PRINT &quot;Amazing guessing skills, &quot; name &quot;! Would you like to play again?&quot;" style="shape=parallelogram;perimeter=parallelogramPerimeter;whiteSpace=wrap;html=1;fixedSize=1;" parent="RYUnOLGqdLZXHsh0iabH-1" vertex="1">
          <mxGeometry x="560" y="1708" width="240" height="60" as="geometry" />
        </mxCell>
        <mxCell id="RYUnOLGqdLZXHsh0iabH-51" style="edgeStyle=orthogonalEdgeStyle;rounded=0;orthogonalLoop=1;jettySize=auto;html=1;exitX=1;exitY=0.5;exitDx=0;exitDy=0;entryX=0.5;entryY=0;entryDx=0;entryDy=0;" parent="RYUnOLGqdLZXHsh0iabH-1" source="RYUnOLGqdLZXHsh0iabH-53" target="RYUnOLGqdLZXHsh0iabH-55" edge="1">
          <mxGeometry relative="1" as="geometry" />
        </mxCell>
        <mxCell id="RYUnOLGqdLZXHsh0iabH-52" style="edgeStyle=orthogonalEdgeStyle;rounded=0;orthogonalLoop=1;jettySize=auto;html=1;exitX=0;exitY=0.5;exitDx=0;exitDy=0;entryX=0.5;entryY=0;entryDx=0;entryDy=0;" parent="RYUnOLGqdLZXHsh0iabH-1" source="RYUnOLGqdLZXHsh0iabH-53" target="RYUnOLGqdLZXHsh0iabH-56" edge="1">
          <mxGeometry relative="1" as="geometry" />
        </mxCell>
        <mxCell id="RYUnOLGqdLZXHsh0iabH-53" value="IF 4 &amp;lt;= tries &amp;lt;= 6" style="rhombus;whiteSpace=wrap;html=1;" parent="RYUnOLGqdLZXHsh0iabH-1" vertex="1">
          <mxGeometry x="190" y="1758" width="80" height="80" as="geometry" />
        </mxCell>
        <mxCell id="RYUnOLGqdLZXHsh0iabH-54" style="edgeStyle=orthogonalEdgeStyle;rounded=0;orthogonalLoop=1;jettySize=auto;html=1;exitX=0.5;exitY=1;exitDx=0;exitDy=0;" parent="RYUnOLGqdLZXHsh0iabH-1" source="RYUnOLGqdLZXHsh0iabH-55" edge="1">
          <mxGeometry relative="1" as="geometry">
            <mxPoint x="425" y="2068" as="targetPoint" />
          </mxGeometry>
        </mxCell>
        <mxCell id="RYUnOLGqdLZXHsh0iabH-55" value="PRINT&amp;nbsp;Nice persistence, &quot; name &quot;!You&#39;ve got it after a few tries. Would you like to play again?&quot;" style="shape=parallelogram;perimeter=parallelogramPerimeter;whiteSpace=wrap;html=1;fixedSize=1;" parent="RYUnOLGqdLZXHsh0iabH-1" vertex="1">
          <mxGeometry x="290" y="1828" width="270" height="60" as="geometry" />
        </mxCell>
        <mxCell id="RYUnOLGqdLZXHsh0iabH-56" value="PRINT &quot;You can do better &quot; name &quot;! Try playing again.&quot;" style="shape=parallelogram;perimeter=parallelogramPerimeter;whiteSpace=wrap;html=1;fixedSize=1;" parent="RYUnOLGqdLZXHsh0iabH-1" vertex="1">
          <mxGeometry x="145" y="1958" width="230" height="60" as="geometry" />
        </mxCell>
        <mxCell id="RYUnOLGqdLZXHsh0iabH-57" value="False" style="text;html=1;align=center;verticalAlign=middle;resizable=0;points=[];autosize=1;strokeColor=none;fillColor=none;" parent="RYUnOLGqdLZXHsh0iabH-1" vertex="1">
          <mxGeometry x="110" y="1818" width="50" height="30" as="geometry" />
        </mxCell>
        <mxCell id="RYUnOLGqdLZXHsh0iabH-58" value="True" style="text;html=1;align=center;verticalAlign=middle;resizable=0;points=[];autosize=1;strokeColor=none;fillColor=none;" parent="RYUnOLGqdLZXHsh0iabH-1" vertex="1">
          <mxGeometry x="270" y="1768" width="50" height="30" as="geometry" />
        </mxCell>
        <mxCell id="RYUnOLGqdLZXHsh0iabH-59" value="False" style="text;html=1;align=center;verticalAlign=middle;resizable=0;points=[];autosize=1;strokeColor=none;fillColor=none;" parent="RYUnOLGqdLZXHsh0iabH-1" vertex="1">
          <mxGeometry x="325" y="1708" width="50" height="30" as="geometry" />
        </mxCell>
        <mxCell id="RYUnOLGqdLZXHsh0iabH-60" value="True" style="text;html=1;align=center;verticalAlign=middle;resizable=0;points=[];autosize=1;strokeColor=none;fillColor=none;" parent="RYUnOLGqdLZXHsh0iabH-1" vertex="1">
          <mxGeometry x="475" y="1706" width="50" height="30" as="geometry" />
        </mxCell>
        <mxCell id="m8zP9kw5fJQLhVDgKk8R-19" value="" style="edgeStyle=orthogonalEdgeStyle;rounded=0;orthogonalLoop=1;jettySize=auto;html=1;" parent="RYUnOLGqdLZXHsh0iabH-1" source="RYUnOLGqdLZXHsh0iabH-62" target="RYUnOLGqdLZXHsh0iabH-27" edge="1">
          <mxGeometry relative="1" as="geometry" />
        </mxCell>
        <mxCell id="RYUnOLGqdLZXHsh0iabH-62" value="" style="shape=waypoint;sketch=0;size=6;pointerEvents=1;points=[];fillColor=none;resizable=0;rotatable=0;perimeter=centerPerimeter;snapToPoint=1;" parent="RYUnOLGqdLZXHsh0iabH-1" vertex="1">
          <mxGeometry x="415" y="2058" width="20" height="20" as="geometry" />
        </mxCell>
        <mxCell id="RYUnOLGqdLZXHsh0iabH-63" style="edgeStyle=orthogonalEdgeStyle;rounded=0;orthogonalLoop=1;jettySize=auto;html=1;exitX=0.5;exitY=1;exitDx=0;exitDy=0;entryX=0.25;entryY=0.3;entryDx=0;entryDy=0;entryPerimeter=0;" parent="RYUnOLGqdLZXHsh0iabH-1" source="RYUnOLGqdLZXHsh0iabH-56" target="RYUnOLGqdLZXHsh0iabH-62" edge="1">
          <mxGeometry relative="1" as="geometry">
            <Array as="points">
              <mxPoint x="260" y="2068" />
            </Array>
          </mxGeometry>
        </mxCell>
        <mxCell id="RYUnOLGqdLZXHsh0iabH-64" style="edgeStyle=orthogonalEdgeStyle;rounded=0;orthogonalLoop=1;jettySize=auto;html=1;exitX=0.5;exitY=1;exitDx=0;exitDy=0;entryX=0.7;entryY=0.25;entryDx=0;entryDy=0;entryPerimeter=0;" parent="RYUnOLGqdLZXHsh0iabH-1" source="RYUnOLGqdLZXHsh0iabH-50" target="RYUnOLGqdLZXHsh0iabH-62" edge="1">
          <mxGeometry relative="1" as="geometry">
            <Array as="points">
              <mxPoint x="680" y="2068" />
            </Array>
          </mxGeometry>
        </mxCell>
        <mxCell id="RYUnOLGqdLZXHsh0iabH-65" value="" style="edgeStyle=orthogonalEdgeStyle;rounded=0;orthogonalLoop=1;jettySize=auto;html=1;" parent="RYUnOLGqdLZXHsh0iabH-1" source="RYUnOLGqdLZXHsh0iabH-66" target="RYUnOLGqdLZXHsh0iabH-42" edge="1">
          <mxGeometry relative="1" as="geometry" />
        </mxCell>
        <mxCell id="RYUnOLGqdLZXHsh0iabH-66" value="" style="shape=waypoint;sketch=0;size=6;pointerEvents=1;points=[];fillColor=none;resizable=0;rotatable=0;perimeter=centerPerimeter;snapToPoint=1;" parent="RYUnOLGqdLZXHsh0iabH-1" vertex="1">
          <mxGeometry x="415" y="860" width="20" height="20" as="geometry" />
        </mxCell>
        <mxCell id="RYUnOLGqdLZXHsh0iabH-67" value="Here, tries will be more than 6" style="text;html=1;align=center;verticalAlign=middle;resizable=0;points=[];autosize=1;strokeColor=none;fillColor=none;" parent="RYUnOLGqdLZXHsh0iabH-1" vertex="1">
          <mxGeometry x="-70" y="1876" width="180" height="30" as="geometry" />
        </mxCell>
        <mxCell id="m8zP9kw5fJQLhVDgKk8R-1" value="" style="edgeStyle=orthogonalEdgeStyle;rounded=0;orthogonalLoop=1;jettySize=auto;html=1;exitX=0.5;exitY=1;exitDx=0;exitDy=0;entryX=0.5;entryY=0;entryDx=0;entryDy=0;" parent="RYUnOLGqdLZXHsh0iabH-1" source="RYUnOLGqdLZXHsh0iabH-42" target="m8zP9kw5fJQLhVDgKk8R-0" edge="1">
          <mxGeometry relative="1" as="geometry">
            <mxPoint x="426" y="940" as="sourcePoint" />
            <mxPoint x="425" y="1180" as="targetPoint" />
          </mxGeometry>
        </mxCell>
        <mxCell id="m8zP9kw5fJQLhVDgKk8R-11" style="edgeStyle=orthogonalEdgeStyle;rounded=0;orthogonalLoop=1;jettySize=auto;html=1;exitX=1;exitY=0.5;exitDx=0;exitDy=0;entryX=0;entryY=0.5;entryDx=0;entryDy=0;" parent="RYUnOLGqdLZXHsh0iabH-1" source="m8zP9kw5fJQLhVDgKk8R-0" target="m8zP9kw5fJQLhVDgKk8R-2" edge="1">
          <mxGeometry relative="1" as="geometry" />
        </mxCell>
        <mxCell id="m8zP9kw5fJQLhVDgKk8R-0" value="IF tries == 2" style="rhombus;whiteSpace=wrap;html=1;" parent="RYUnOLGqdLZXHsh0iabH-1" vertex="1">
          <mxGeometry x="385" y="980" width="80" height="80" as="geometry" />
        </mxCell>
        <mxCell id="m8zP9kw5fJQLhVDgKk8R-16" style="edgeStyle=orthogonalEdgeStyle;rounded=0;orthogonalLoop=1;jettySize=auto;html=1;exitX=1;exitY=0.5;exitDx=0;exitDy=0;" parent="RYUnOLGqdLZXHsh0iabH-1" source="m8zP9kw5fJQLhVDgKk8R-2" edge="1">
          <mxGeometry relative="1" as="geometry">
            <mxPoint x="430" y="1090" as="targetPoint" />
            <Array as="points">
              <mxPoint x="740" y="1020" />
              <mxPoint x="740" y="1100" />
              <mxPoint x="430" y="1100" />
            </Array>
          </mxGeometry>
        </mxCell>
        <mxCell id="m8zP9kw5fJQLhVDgKk8R-2" value="PRINT &quot;Hint: the number is between 100 and 200&quot;" style="shape=parallelogram;perimeter=parallelogramPerimeter;whiteSpace=wrap;html=1;fixedSize=1;" parent="RYUnOLGqdLZXHsh0iabH-1" vertex="1">
          <mxGeometry x="490" y="995" width="230" height="50" as="geometry" />
        </mxCell>
        <mxCell id="m8zP9kw5fJQLhVDgKk8R-3" value="" style="edgeStyle=orthogonalEdgeStyle;rounded=0;orthogonalLoop=1;jettySize=auto;html=1;exitX=0.5;exitY=1;exitDx=0;exitDy=0;entryX=0.5;entryY=0;entryDx=0;entryDy=0;" parent="RYUnOLGqdLZXHsh0iabH-1" source="m8zP9kw5fJQLhVDgKk8R-0" target="m8zP9kw5fJQLhVDgKk8R-4" edge="1">
          <mxGeometry relative="1" as="geometry">
            <mxPoint x="425" y="1060" as="sourcePoint" />
            <mxPoint x="425" y="1180" as="targetPoint" />
          </mxGeometry>
        </mxCell>
        <mxCell id="m8zP9kw5fJQLhVDgKk8R-12" style="edgeStyle=orthogonalEdgeStyle;rounded=0;orthogonalLoop=1;jettySize=auto;html=1;exitX=1;exitY=0.5;exitDx=0;exitDy=0;entryX=0;entryY=0.5;entryDx=0;entryDy=0;" parent="RYUnOLGqdLZXHsh0iabH-1" source="m8zP9kw5fJQLhVDgKk8R-4" target="m8zP9kw5fJQLhVDgKk8R-7" edge="1">
          <mxGeometry relative="1" as="geometry" />
        </mxCell>
        <mxCell id="m8zP9kw5fJQLhVDgKk8R-4" value="IF tries == 4" style="rhombus;whiteSpace=wrap;html=1;" parent="RYUnOLGqdLZXHsh0iabH-1" vertex="1">
          <mxGeometry x="385" y="1140" width="80" height="80" as="geometry" />
        </mxCell>
        <mxCell id="m8zP9kw5fJQLhVDgKk8R-6" value="" style="edgeStyle=orthogonalEdgeStyle;rounded=0;orthogonalLoop=1;jettySize=auto;html=1;exitX=0.5;exitY=1;exitDx=0;exitDy=0;entryX=0.5;entryY=0;entryDx=0;entryDy=0;" parent="RYUnOLGqdLZXHsh0iabH-1" source="m8zP9kw5fJQLhVDgKk8R-4" target="m8zP9kw5fJQLhVDgKk8R-5" edge="1">
          <mxGeometry relative="1" as="geometry">
            <mxPoint x="425" y="1250" as="sourcePoint" />
            <mxPoint x="425" y="1400" as="targetPoint" />
          </mxGeometry>
        </mxCell>
        <mxCell id="m8zP9kw5fJQLhVDgKk8R-10" style="edgeStyle=orthogonalEdgeStyle;rounded=0;orthogonalLoop=1;jettySize=auto;html=1;exitX=1;exitY=0.5;exitDx=0;exitDy=0;entryX=0;entryY=0.5;entryDx=0;entryDy=0;" parent="RYUnOLGqdLZXHsh0iabH-1" source="m8zP9kw5fJQLhVDgKk8R-5" target="m8zP9kw5fJQLhVDgKk8R-8" edge="1">
          <mxGeometry relative="1" as="geometry" />
        </mxCell>
        <mxCell id="m8zP9kw5fJQLhVDgKk8R-5" value="IF tries == 6" style="rhombus;whiteSpace=wrap;html=1;" parent="RYUnOLGqdLZXHsh0iabH-1" vertex="1">
          <mxGeometry x="385.5" y="1280" width="80" height="80" as="geometry" />
        </mxCell>
        <mxCell id="m8zP9kw5fJQLhVDgKk8R-17" style="edgeStyle=orthogonalEdgeStyle;rounded=0;orthogonalLoop=1;jettySize=auto;html=1;exitX=1;exitY=0.5;exitDx=0;exitDy=0;" parent="RYUnOLGqdLZXHsh0iabH-1" source="m8zP9kw5fJQLhVDgKk8R-7" edge="1">
          <mxGeometry relative="1" as="geometry">
            <mxPoint x="430" y="1250" as="targetPoint" />
            <Array as="points">
              <mxPoint x="740" y="1180" />
              <mxPoint x="740" y="1260" />
              <mxPoint x="430" y="1260" />
            </Array>
          </mxGeometry>
        </mxCell>
        <mxCell id="m8zP9kw5fJQLhVDgKk8R-7" value="PRINT &quot;Hint: The number I&#39;m thinking of is divisible by 20&quot;" style="shape=parallelogram;perimeter=parallelogramPerimeter;whiteSpace=wrap;html=1;fixedSize=1;" parent="RYUnOLGqdLZXHsh0iabH-1" vertex="1">
          <mxGeometry x="485" y="1155" width="230" height="50" as="geometry" />
        </mxCell>
        <mxCell id="m8zP9kw5fJQLhVDgKk8R-18" style="edgeStyle=orthogonalEdgeStyle;rounded=0;orthogonalLoop=1;jettySize=auto;html=1;exitX=1;exitY=0.5;exitDx=0;exitDy=0;" parent="RYUnOLGqdLZXHsh0iabH-1" source="m8zP9kw5fJQLhVDgKk8R-8" edge="1">
          <mxGeometry relative="1" as="geometry">
            <mxPoint x="430" y="1390" as="targetPoint" />
            <Array as="points">
              <mxPoint x="750" y="1320" />
              <mxPoint x="750" y="1380" />
              <mxPoint x="430" y="1380" />
            </Array>
          </mxGeometry>
        </mxCell>
        <mxCell id="m8zP9kw5fJQLhVDgKk8R-8" value="PRINT &quot;Hint: The number is between 125 and 155&quot;" style="shape=parallelogram;perimeter=parallelogramPerimeter;whiteSpace=wrap;html=1;fixedSize=1;" parent="RYUnOLGqdLZXHsh0iabH-1" vertex="1">
          <mxGeometry x="490" y="1295" width="230" height="50" as="geometry" />
        </mxCell>
      </root>
    </mxGraphModel>
  </diagram>
  <diagram id="YKrrdj0kETDblrCpQ5j5" name="Page-3">
    <mxGraphModel dx="1062" dy="603" grid="1" gridSize="10" guides="1" tooltips="1" connect="1" arrows="1" fold="1" page="1" pageScale="1" pageWidth="850" pageHeight="1100" math="0" shadow="0">
      <root>
        <mxCell id="0" />
        <mxCell id="1" parent="0" />
        <mxCell id="SSnDqNMQMaFf7AZcTWcz-7" style="edgeStyle=orthogonalEdgeStyle;rounded=0;orthogonalLoop=1;jettySize=auto;html=1;exitX=0.5;exitY=1;exitDx=0;exitDy=0;entryX=0.5;entryY=0;entryDx=0;entryDy=0;" edge="1" parent="1" source="SSnDqNMQMaFf7AZcTWcz-1" target="SSnDqNMQMaFf7AZcTWcz-2">
          <mxGeometry relative="1" as="geometry" />
        </mxCell>
        <mxCell id="SSnDqNMQMaFf7AZcTWcz-1" value="Start_ATM" style="ellipse;whiteSpace=wrap;html=1;" vertex="1" parent="1">
          <mxGeometry x="320" y="40" width="210" height="60" as="geometry" />
        </mxCell>
        <mxCell id="SSnDqNMQMaFf7AZcTWcz-8" style="edgeStyle=orthogonalEdgeStyle;rounded=0;orthogonalLoop=1;jettySize=auto;html=1;exitX=0.5;exitY=1;exitDx=0;exitDy=0;entryX=0.5;entryY=0;entryDx=0;entryDy=0;" edge="1" parent="1" source="SSnDqNMQMaFf7AZcTWcz-2" target="SSnDqNMQMaFf7AZcTWcz-3">
          <mxGeometry relative="1" as="geometry" />
        </mxCell>
        <mxCell id="SSnDqNMQMaFf7AZcTWcz-2" value="balance = 1000" style="rounded=0;whiteSpace=wrap;html=1;" vertex="1" parent="1">
          <mxGeometry x="365" y="130" width="120" height="60" as="geometry" />
        </mxCell>
        <mxCell id="SSnDqNMQMaFf7AZcTWcz-9" style="edgeStyle=orthogonalEdgeStyle;rounded=0;orthogonalLoop=1;jettySize=auto;html=1;exitX=0.5;exitY=1;exitDx=0;exitDy=0;entryX=0.5;entryY=0;entryDx=0;entryDy=0;" edge="1" parent="1" source="SSnDqNMQMaFf7AZcTWcz-32" target="SSnDqNMQMaFf7AZcTWcz-4">
          <mxGeometry relative="1" as="geometry" />
        </mxCell>
        <mxCell id="SSnDqNMQMaFf7AZcTWcz-3" value="MAX_WDRAW = 500" style="rounded=0;whiteSpace=wrap;html=1;" vertex="1" parent="1">
          <mxGeometry x="340" y="210" width="170" height="60" as="geometry" />
        </mxCell>
        <mxCell id="SSnDqNMQMaFf7AZcTWcz-13" style="edgeStyle=orthogonalEdgeStyle;rounded=0;orthogonalLoop=1;jettySize=auto;html=1;exitX=0.5;exitY=1;exitDx=0;exitDy=0;entryX=0.5;entryY=0;entryDx=0;entryDy=0;" edge="1" parent="1" source="SSnDqNMQMaFf7AZcTWcz-4" target="SSnDqNMQMaFf7AZcTWcz-5">
          <mxGeometry relative="1" as="geometry" />
        </mxCell>
        <mxCell id="SSnDqNMQMaFf7AZcTWcz-4" value="C_PIN = 1234" style="rounded=0;whiteSpace=wrap;html=1;" vertex="1" parent="1">
          <mxGeometry x="365" y="380" width="120" height="60" as="geometry" />
        </mxCell>
        <mxCell id="SSnDqNMQMaFf7AZcTWcz-11" style="edgeStyle=orthogonalEdgeStyle;rounded=0;orthogonalLoop=1;jettySize=auto;html=1;exitX=0.5;exitY=1;exitDx=0;exitDy=0;entryX=0.5;entryY=0;entryDx=0;entryDy=0;" edge="1" parent="1" source="SSnDqNMQMaFf7AZcTWcz-5" target="SSnDqNMQMaFf7AZcTWcz-6">
          <mxGeometry relative="1" as="geometry" />
        </mxCell>
        <mxCell id="SSnDqNMQMaFf7AZcTWcz-5" value="INPUT pin" style="shape=parallelogram;perimeter=parallelogramPerimeter;whiteSpace=wrap;html=1;fixedSize=1;" vertex="1" parent="1">
          <mxGeometry x="340" y="500" width="170" height="40" as="geometry" />
        </mxCell>
        <mxCell id="SSnDqNMQMaFf7AZcTWcz-12" style="edgeStyle=orthogonalEdgeStyle;rounded=0;orthogonalLoop=1;jettySize=auto;html=1;exitX=0;exitY=0.5;exitDx=0;exitDy=0;" edge="1" parent="1" source="SSnDqNMQMaFf7AZcTWcz-16">
          <mxGeometry relative="1" as="geometry">
            <mxPoint x="420" y="470" as="targetPoint" />
            <Array as="points">
              <mxPoint x="220" y="470" />
            </Array>
          </mxGeometry>
        </mxCell>
        <mxCell id="SSnDqNMQMaFf7AZcTWcz-80" style="edgeStyle=orthogonalEdgeStyle;rounded=0;orthogonalLoop=1;jettySize=auto;html=1;exitX=0.5;exitY=1;exitDx=0;exitDy=0;entryX=0.5;entryY=0;entryDx=0;entryDy=0;" edge="1" parent="1" source="SSnDqNMQMaFf7AZcTWcz-6" target="SSnDqNMQMaFf7AZcTWcz-17">
          <mxGeometry relative="1" as="geometry" />
        </mxCell>
        <mxCell id="SSnDqNMQMaFf7AZcTWcz-6" value="IF pin == D_PIN" style="rhombus;whiteSpace=wrap;html=1;" vertex="1" parent="1">
          <mxGeometry x="385" y="570" width="80" height="80" as="geometry" />
        </mxCell>
        <mxCell id="SSnDqNMQMaFf7AZcTWcz-14" value="False" style="text;html=1;align=center;verticalAlign=middle;resizable=0;points=[];autosize=1;strokeColor=none;fillColor=none;" vertex="1" parent="1">
          <mxGeometry x="325" y="578" width="50" height="30" as="geometry" />
        </mxCell>
        <mxCell id="SSnDqNMQMaFf7AZcTWcz-15" value="" style="edgeStyle=orthogonalEdgeStyle;rounded=0;orthogonalLoop=1;jettySize=auto;html=1;exitX=0;exitY=0.5;exitDx=0;exitDy=0;" edge="1" parent="1" source="SSnDqNMQMaFf7AZcTWcz-6" target="SSnDqNMQMaFf7AZcTWcz-16">
          <mxGeometry relative="1" as="geometry">
            <mxPoint x="420" y="470" as="targetPoint" />
            <mxPoint x="385" y="610" as="sourcePoint" />
            <Array as="points">
              <mxPoint x="220" y="610" />
            </Array>
          </mxGeometry>
        </mxCell>
        <mxCell id="SSnDqNMQMaFf7AZcTWcz-16" value="PRINT &quot;Incorrect pin. Try again." style="shape=parallelogram;perimeter=parallelogramPerimeter;whiteSpace=wrap;html=1;fixedSize=1;" vertex="1" parent="1">
          <mxGeometry x="120" y="520" width="200" height="40" as="geometry" />
        </mxCell>
        <mxCell id="SSnDqNMQMaFf7AZcTWcz-24" style="edgeStyle=orthogonalEdgeStyle;rounded=0;orthogonalLoop=1;jettySize=auto;html=1;exitX=0.5;exitY=1;exitDx=0;exitDy=0;entryX=0.5;entryY=0;entryDx=0;entryDy=0;" edge="1" parent="1" source="SSnDqNMQMaFf7AZcTWcz-17" target="SSnDqNMQMaFf7AZcTWcz-18">
          <mxGeometry relative="1" as="geometry" />
        </mxCell>
        <mxCell id="SSnDqNMQMaFf7AZcTWcz-17" value="PRINT &quot;Access granted!&quot;" style="shape=parallelogram;perimeter=parallelogramPerimeter;whiteSpace=wrap;html=1;fixedSize=1;" vertex="1" parent="1">
          <mxGeometry x="320.5" y="680" width="210" height="40" as="geometry" />
        </mxCell>
        <mxCell id="SSnDqNMQMaFf7AZcTWcz-23" value="" style="edgeStyle=orthogonalEdgeStyle;rounded=0;orthogonalLoop=1;jettySize=auto;html=1;" edge="1" parent="1" source="SSnDqNMQMaFf7AZcTWcz-18" target="SSnDqNMQMaFf7AZcTWcz-22">
          <mxGeometry relative="1" as="geometry" />
        </mxCell>
        <mxCell id="SSnDqNMQMaFf7AZcTWcz-18" value="PRINT &quot;Main menu: &quot;" style="shape=parallelogram;perimeter=parallelogramPerimeter;whiteSpace=wrap;html=1;fixedSize=1;" vertex="1" parent="1">
          <mxGeometry x="311" y="820" width="229" height="50" as="geometry" />
        </mxCell>
        <mxCell id="SSnDqNMQMaFf7AZcTWcz-74" style="edgeStyle=orthogonalEdgeStyle;rounded=0;orthogonalLoop=1;jettySize=auto;html=1;exitX=0.5;exitY=1;exitDx=0;exitDy=0;entryX=0.5;entryY=0;entryDx=0;entryDy=0;" edge="1" parent="1" source="SSnDqNMQMaFf7AZcTWcz-22" target="SSnDqNMQMaFf7AZcTWcz-25">
          <mxGeometry relative="1" as="geometry" />
        </mxCell>
        <mxCell id="SSnDqNMQMaFf7AZcTWcz-22" value="PRINT &quot;1. Check balance&quot;&lt;br&gt;PRINT &quot;2. Deposit Money&quot;&lt;br&gt;PRINT &quot;3. Withdraw Money&quot;&lt;br&gt;PRINT &quot;4. Exit&quot;" style="shape=parallelogram;perimeter=parallelogramPerimeter;whiteSpace=wrap;html=1;fixedSize=1;" vertex="1" parent="1">
          <mxGeometry x="311" y="910" width="229" height="100" as="geometry" />
        </mxCell>
        <mxCell id="SSnDqNMQMaFf7AZcTWcz-73" style="edgeStyle=orthogonalEdgeStyle;rounded=0;orthogonalLoop=1;jettySize=auto;html=1;exitX=0.5;exitY=1;exitDx=0;exitDy=0;entryX=0.5;entryY=0;entryDx=0;entryDy=0;" edge="1" parent="1" source="SSnDqNMQMaFf7AZcTWcz-25" target="SSnDqNMQMaFf7AZcTWcz-27">
          <mxGeometry relative="1" as="geometry" />
        </mxCell>
        <mxCell id="SSnDqNMQMaFf7AZcTWcz-25" value="INPUT choice" style="shape=parallelogram;perimeter=parallelogramPerimeter;whiteSpace=wrap;html=1;fixedSize=1;" vertex="1" parent="1">
          <mxGeometry x="330" y="1100" width="190" height="40" as="geometry" />
        </mxCell>
        <mxCell id="SSnDqNMQMaFf7AZcTWcz-56" style="edgeStyle=orthogonalEdgeStyle;rounded=0;orthogonalLoop=1;jettySize=auto;html=1;exitX=1;exitY=0.5;exitDx=0;exitDy=0;entryX=0;entryY=0.5;entryDx=0;entryDy=0;" edge="1" parent="1" source="SSnDqNMQMaFf7AZcTWcz-27" target="SSnDqNMQMaFf7AZcTWcz-30">
          <mxGeometry relative="1" as="geometry" />
        </mxCell>
        <mxCell id="SSnDqNMQMaFf7AZcTWcz-83" style="edgeStyle=orthogonalEdgeStyle;rounded=0;orthogonalLoop=1;jettySize=auto;html=1;exitX=0.5;exitY=1;exitDx=0;exitDy=0;entryX=0.5;entryY=0;entryDx=0;entryDy=0;" edge="1" parent="1" source="SSnDqNMQMaFf7AZcTWcz-27" target="SSnDqNMQMaFf7AZcTWcz-29">
          <mxGeometry relative="1" as="geometry" />
        </mxCell>
        <mxCell id="SSnDqNMQMaFf7AZcTWcz-27" value="IF choice == 1" style="rhombus;whiteSpace=wrap;html=1;" vertex="1" parent="1">
          <mxGeometry x="365" y="1160" width="120" height="120" as="geometry" />
        </mxCell>
        <mxCell id="SSnDqNMQMaFf7AZcTWcz-68" style="edgeStyle=orthogonalEdgeStyle;rounded=0;orthogonalLoop=1;jettySize=auto;html=1;exitX=1;exitY=0.5;exitDx=0;exitDy=0;entryX=0;entryY=0.5;entryDx=0;entryDy=0;" edge="1" parent="1" source="SSnDqNMQMaFf7AZcTWcz-28" target="SSnDqNMQMaFf7AZcTWcz-31">
          <mxGeometry relative="1" as="geometry" />
        </mxCell>
        <mxCell id="SSnDqNMQMaFf7AZcTWcz-85" style="edgeStyle=orthogonalEdgeStyle;rounded=0;orthogonalLoop=1;jettySize=auto;html=1;exitX=0.5;exitY=1;exitDx=0;exitDy=0;" edge="1" parent="1" source="SSnDqNMQMaFf7AZcTWcz-28" target="SSnDqNMQMaFf7AZcTWcz-57">
          <mxGeometry relative="1" as="geometry" />
        </mxCell>
        <mxCell id="SSnDqNMQMaFf7AZcTWcz-28" value="IF choice == 3" style="rhombus;whiteSpace=wrap;html=1;" vertex="1" parent="1">
          <mxGeometry x="365" y="1560" width="120" height="120" as="geometry" />
        </mxCell>
        <mxCell id="SSnDqNMQMaFf7AZcTWcz-51" style="edgeStyle=orthogonalEdgeStyle;rounded=0;orthogonalLoop=1;jettySize=auto;html=1;exitX=1;exitY=0.5;exitDx=0;exitDy=0;entryX=0;entryY=0.5;entryDx=0;entryDy=0;" edge="1" parent="1" source="SSnDqNMQMaFf7AZcTWcz-29" target="SSnDqNMQMaFf7AZcTWcz-47">
          <mxGeometry relative="1" as="geometry" />
        </mxCell>
        <mxCell id="SSnDqNMQMaFf7AZcTWcz-84" style="edgeStyle=orthogonalEdgeStyle;rounded=0;orthogonalLoop=1;jettySize=auto;html=1;exitX=0.5;exitY=1;exitDx=0;exitDy=0;entryX=0.5;entryY=0;entryDx=0;entryDy=0;" edge="1" parent="1" source="SSnDqNMQMaFf7AZcTWcz-29" target="SSnDqNMQMaFf7AZcTWcz-28">
          <mxGeometry relative="1" as="geometry" />
        </mxCell>
        <mxCell id="SSnDqNMQMaFf7AZcTWcz-29" value="IF choice == 2" style="rhombus;whiteSpace=wrap;html=1;" vertex="1" parent="1">
          <mxGeometry x="365" y="1330" width="120" height="120" as="geometry" />
        </mxCell>
        <mxCell id="SSnDqNMQMaFf7AZcTWcz-30" value="PRINT balance" style="shape=parallelogram;perimeter=parallelogramPerimeter;whiteSpace=wrap;html=1;fixedSize=1;" vertex="1" parent="1">
          <mxGeometry x="590" y="1190" width="140" height="60" as="geometry" />
        </mxCell>
        <mxCell id="SSnDqNMQMaFf7AZcTWcz-44" style="edgeStyle=orthogonalEdgeStyle;rounded=0;orthogonalLoop=1;jettySize=auto;html=1;exitX=1;exitY=0.5;exitDx=0;exitDy=0;entryX=0;entryY=0.5;entryDx=0;entryDy=0;" edge="1" parent="1" source="SSnDqNMQMaFf7AZcTWcz-31" target="SSnDqNMQMaFf7AZcTWcz-36">
          <mxGeometry relative="1" as="geometry" />
        </mxCell>
        <mxCell id="SSnDqNMQMaFf7AZcTWcz-31" value="INPUT amountWD" style="shape=parallelogram;perimeter=parallelogramPerimeter;whiteSpace=wrap;html=1;fixedSize=1;" vertex="1" parent="1">
          <mxGeometry x="515" y="1590" width="140" height="60" as="geometry" />
        </mxCell>
        <mxCell id="SSnDqNMQMaFf7AZcTWcz-33" value="" style="edgeStyle=orthogonalEdgeStyle;rounded=0;orthogonalLoop=1;jettySize=auto;html=1;exitX=0.5;exitY=1;exitDx=0;exitDy=0;entryX=0.5;entryY=0;entryDx=0;entryDy=0;" edge="1" parent="1" source="SSnDqNMQMaFf7AZcTWcz-3" target="SSnDqNMQMaFf7AZcTWcz-32">
          <mxGeometry relative="1" as="geometry">
            <mxPoint x="425" y="270" as="sourcePoint" />
            <mxPoint x="425" y="380" as="targetPoint" />
          </mxGeometry>
        </mxCell>
        <mxCell id="SSnDqNMQMaFf7AZcTWcz-32" value="sessionWD = 0" style="rounded=0;whiteSpace=wrap;html=1;" vertex="1" parent="1">
          <mxGeometry x="365" y="290" width="120" height="60" as="geometry" />
        </mxCell>
        <mxCell id="SSnDqNMQMaFf7AZcTWcz-40" style="edgeStyle=orthogonalEdgeStyle;rounded=0;orthogonalLoop=1;jettySize=auto;html=1;exitX=0.5;exitY=0;exitDx=0;exitDy=0;entryX=0;entryY=0.5;entryDx=0;entryDy=0;" edge="1" parent="1" source="SSnDqNMQMaFf7AZcTWcz-36" target="SSnDqNMQMaFf7AZcTWcz-38">
          <mxGeometry relative="1" as="geometry" />
        </mxCell>
        <mxCell id="SSnDqNMQMaFf7AZcTWcz-42" style="edgeStyle=orthogonalEdgeStyle;rounded=0;orthogonalLoop=1;jettySize=auto;html=1;exitX=0.5;exitY=1;exitDx=0;exitDy=0;entryX=0;entryY=0.5;entryDx=0;entryDy=0;" edge="1" parent="1" source="SSnDqNMQMaFf7AZcTWcz-36" target="SSnDqNMQMaFf7AZcTWcz-41">
          <mxGeometry relative="1" as="geometry" />
        </mxCell>
        <mxCell id="SSnDqNMQMaFf7AZcTWcz-36" value="IF sessionWD + amountWD &amp;lt;= 500" style="rhombus;whiteSpace=wrap;html=1;" vertex="1" parent="1">
          <mxGeometry x="665" y="1560" width="140" height="120" as="geometry" />
        </mxCell>
        <mxCell id="SSnDqNMQMaFf7AZcTWcz-60" style="edgeStyle=orthogonalEdgeStyle;rounded=0;orthogonalLoop=1;jettySize=auto;html=1;exitDx=0;exitDy=0;" edge="1" parent="1" source="SSnDqNMQMaFf7AZcTWcz-59">
          <mxGeometry relative="1" as="geometry">
            <mxPoint x="1245" y="1640" as="targetPoint" />
          </mxGeometry>
        </mxCell>
        <mxCell id="SSnDqNMQMaFf7AZcTWcz-37" value="PRINT &quot;Withdrew&quot; amountWD &quot;, New balance: &quot; balance" style="shape=parallelogram;perimeter=parallelogramPerimeter;whiteSpace=wrap;html=1;fixedSize=1;" vertex="1" parent="1">
          <mxGeometry x="995" y="1500" width="220" height="80" as="geometry" />
        </mxCell>
        <mxCell id="SSnDqNMQMaFf7AZcTWcz-39" style="edgeStyle=orthogonalEdgeStyle;rounded=0;orthogonalLoop=1;jettySize=auto;html=1;exitX=1;exitY=0.5;exitDx=0;exitDy=0;entryX=0;entryY=0.5;entryDx=0;entryDy=0;" edge="1" parent="1" source="SSnDqNMQMaFf7AZcTWcz-38" target="SSnDqNMQMaFf7AZcTWcz-37">
          <mxGeometry relative="1" as="geometry" />
        </mxCell>
        <mxCell id="SSnDqNMQMaFf7AZcTWcz-38" value="sessionWD += amountWD&lt;br&gt;balance -= amountWD" style="rounded=0;whiteSpace=wrap;html=1;" vertex="1" parent="1">
          <mxGeometry x="805" y="1510" width="160" height="60" as="geometry" />
        </mxCell>
        <mxCell id="SSnDqNMQMaFf7AZcTWcz-62" style="edgeStyle=orthogonalEdgeStyle;rounded=0;orthogonalLoop=1;jettySize=auto;html=1;" edge="1" parent="1" source="SSnDqNMQMaFf7AZcTWcz-57" target="SSnDqNMQMaFf7AZcTWcz-59">
          <mxGeometry relative="1" as="geometry">
            <mxPoint x="530" y="1760" as="sourcePoint" />
          </mxGeometry>
        </mxCell>
        <mxCell id="SSnDqNMQMaFf7AZcTWcz-63" style="edgeStyle=orthogonalEdgeStyle;rounded=0;orthogonalLoop=1;jettySize=auto;html=1;exitX=1;exitY=0.5;exitDx=0;exitDy=0;" edge="1" parent="1" source="SSnDqNMQMaFf7AZcTWcz-41" target="SSnDqNMQMaFf7AZcTWcz-59">
          <mxGeometry relative="1" as="geometry" />
        </mxCell>
        <mxCell id="SSnDqNMQMaFf7AZcTWcz-41" value="PRINT &quot;Can only withdraw a max of 500 per day&quot;" style="shape=parallelogram;perimeter=parallelogramPerimeter;whiteSpace=wrap;html=1;fixedSize=1;" vertex="1" parent="1">
          <mxGeometry x="785" y="1670" width="200" height="60" as="geometry" />
        </mxCell>
        <mxCell id="SSnDqNMQMaFf7AZcTWcz-45" value="True" style="text;html=1;align=center;verticalAlign=middle;resizable=0;points=[];autosize=1;strokeColor=none;fillColor=none;" vertex="1" parent="1">
          <mxGeometry x="730" y="1508" width="50" height="30" as="geometry" />
        </mxCell>
        <mxCell id="SSnDqNMQMaFf7AZcTWcz-46" value="False" style="text;html=1;align=center;verticalAlign=middle;resizable=0;points=[];autosize=1;strokeColor=none;fillColor=none;" vertex="1" parent="1">
          <mxGeometry x="720" y="1708" width="50" height="30" as="geometry" />
        </mxCell>
        <mxCell id="SSnDqNMQMaFf7AZcTWcz-52" style="edgeStyle=orthogonalEdgeStyle;rounded=0;orthogonalLoop=1;jettySize=auto;html=1;exitX=1;exitY=0.5;exitDx=0;exitDy=0;entryX=0;entryY=0.5;entryDx=0;entryDy=0;" edge="1" parent="1" source="SSnDqNMQMaFf7AZcTWcz-47" target="SSnDqNMQMaFf7AZcTWcz-49">
          <mxGeometry relative="1" as="geometry" />
        </mxCell>
        <mxCell id="SSnDqNMQMaFf7AZcTWcz-47" value="INPUT amountDP" style="shape=parallelogram;perimeter=parallelogramPerimeter;whiteSpace=wrap;html=1;fixedSize=1;" vertex="1" parent="1">
          <mxGeometry x="500" y="1360" width="140" height="60" as="geometry" />
        </mxCell>
        <mxCell id="SSnDqNMQMaFf7AZcTWcz-53" style="edgeStyle=orthogonalEdgeStyle;rounded=0;orthogonalLoop=1;jettySize=auto;html=1;exitX=1;exitY=0.5;exitDx=0;exitDy=0;entryX=0;entryY=0.5;entryDx=0;entryDy=0;" edge="1" parent="1" source="SSnDqNMQMaFf7AZcTWcz-49" target="SSnDqNMQMaFf7AZcTWcz-50">
          <mxGeometry relative="1" as="geometry" />
        </mxCell>
        <mxCell id="SSnDqNMQMaFf7AZcTWcz-49" value="balance += amountDP" style="rounded=0;whiteSpace=wrap;html=1;" vertex="1" parent="1">
          <mxGeometry x="680" y="1360" width="120" height="60" as="geometry" />
        </mxCell>
        <mxCell id="SSnDqNMQMaFf7AZcTWcz-50" value="PRINT &quot;Deposited: &quot; amountDP &quot;, New balance: &quot; balance" style="shape=parallelogram;perimeter=parallelogramPerimeter;whiteSpace=wrap;html=1;fixedSize=1;" vertex="1" parent="1">
          <mxGeometry x="850" y="1350" width="220" height="80" as="geometry" />
        </mxCell>
        <mxCell id="SSnDqNMQMaFf7AZcTWcz-76" value="" style="edgeStyle=orthogonalEdgeStyle;rounded=0;orthogonalLoop=1;jettySize=auto;html=1;" edge="1" parent="1" source="SSnDqNMQMaFf7AZcTWcz-57" target="SSnDqNMQMaFf7AZcTWcz-75">
          <mxGeometry relative="1" as="geometry" />
        </mxCell>
        <mxCell id="SSnDqNMQMaFf7AZcTWcz-57" value="" style="shape=waypoint;sketch=0;size=6;pointerEvents=1;points=[];fillColor=none;resizable=0;rotatable=0;perimeter=centerPerimeter;snapToPoint=1;" vertex="1" parent="1">
          <mxGeometry x="415.5" y="1780" width="20" height="20" as="geometry" />
        </mxCell>
        <mxCell id="SSnDqNMQMaFf7AZcTWcz-58" style="edgeStyle=orthogonalEdgeStyle;rounded=0;orthogonalLoop=1;jettySize=auto;html=1;exitX=1;exitY=0.5;exitDx=0;exitDy=0;entryX=0.805;entryY=0.34;entryDx=0;entryDy=0;entryPerimeter=0;" edge="1" parent="1" source="SSnDqNMQMaFf7AZcTWcz-30" target="SSnDqNMQMaFf7AZcTWcz-57">
          <mxGeometry relative="1" as="geometry">
            <Array as="points">
              <mxPoint x="1370" y="1220" />
              <mxPoint x="1370" y="1790" />
            </Array>
          </mxGeometry>
        </mxCell>
        <mxCell id="SSnDqNMQMaFf7AZcTWcz-61" value="" style="edgeStyle=orthogonalEdgeStyle;rounded=0;orthogonalLoop=1;jettySize=auto;html=1;exitX=1;exitY=0.5;exitDx=0;exitDy=0;" edge="1" parent="1" source="SSnDqNMQMaFf7AZcTWcz-37" target="SSnDqNMQMaFf7AZcTWcz-59">
          <mxGeometry relative="1" as="geometry">
            <mxPoint x="1205" y="1540" as="sourcePoint" />
            <mxPoint x="1245" y="1640" as="targetPoint" />
          </mxGeometry>
        </mxCell>
        <mxCell id="SSnDqNMQMaFf7AZcTWcz-59" value="" style="shape=waypoint;sketch=0;size=6;pointerEvents=1;points=[];fillColor=none;resizable=0;rotatable=0;perimeter=centerPerimeter;snapToPoint=1;" vertex="1" parent="1">
          <mxGeometry x="1235" y="1630" width="20" height="20" as="geometry" />
        </mxCell>
        <mxCell id="SSnDqNMQMaFf7AZcTWcz-64" style="edgeStyle=orthogonalEdgeStyle;rounded=0;orthogonalLoop=1;jettySize=auto;html=1;exitX=1;exitY=0.5;exitDx=0;exitDy=0;entryX=0.685;entryY=0.86;entryDx=0;entryDy=0;entryPerimeter=0;" edge="1" parent="1" source="SSnDqNMQMaFf7AZcTWcz-50" target="SSnDqNMQMaFf7AZcTWcz-57">
          <mxGeometry relative="1" as="geometry">
            <Array as="points">
              <mxPoint x="1330" y="1390" />
              <mxPoint x="1330" y="1790" />
            </Array>
          </mxGeometry>
        </mxCell>
        <mxCell id="SSnDqNMQMaFf7AZcTWcz-66" value="True" style="text;html=1;align=center;verticalAlign=middle;resizable=0;points=[];autosize=1;strokeColor=none;fillColor=none;" vertex="1" parent="1">
          <mxGeometry x="485" y="1188" width="50" height="30" as="geometry" />
        </mxCell>
        <mxCell id="SSnDqNMQMaFf7AZcTWcz-67" value="False" style="text;html=1;align=center;verticalAlign=middle;resizable=0;points=[];autosize=1;strokeColor=none;fillColor=none;" vertex="1" parent="1">
          <mxGeometry x="425" y="1278" width="50" height="30" as="geometry" />
        </mxCell>
        <mxCell id="SSnDqNMQMaFf7AZcTWcz-69" value="True" style="text;html=1;align=center;verticalAlign=middle;resizable=0;points=[];autosize=1;strokeColor=none;fillColor=none;" vertex="1" parent="1">
          <mxGeometry x="465" y="1578" width="50" height="30" as="geometry" />
        </mxCell>
        <mxCell id="SSnDqNMQMaFf7AZcTWcz-70" value="False" style="text;html=1;align=center;verticalAlign=middle;resizable=0;points=[];autosize=1;strokeColor=none;fillColor=none;" vertex="1" parent="1">
          <mxGeometry x="425" y="1680" width="50" height="30" as="geometry" />
        </mxCell>
        <mxCell id="SSnDqNMQMaFf7AZcTWcz-71" value="True" style="text;html=1;align=center;verticalAlign=middle;resizable=0;points=[];autosize=1;strokeColor=none;fillColor=none;" vertex="1" parent="1">
          <mxGeometry x="465" y="1348" width="50" height="30" as="geometry" />
        </mxCell>
        <mxCell id="SSnDqNMQMaFf7AZcTWcz-72" value="False" style="text;html=1;align=center;verticalAlign=middle;resizable=0;points=[];autosize=1;strokeColor=none;fillColor=none;" vertex="1" parent="1">
          <mxGeometry x="425" y="1450" width="50" height="30" as="geometry" />
        </mxCell>
        <mxCell id="SSnDqNMQMaFf7AZcTWcz-77" style="edgeStyle=orthogonalEdgeStyle;rounded=0;orthogonalLoop=1;jettySize=auto;html=1;exitX=0;exitY=0.5;exitDx=0;exitDy=0;" edge="1" parent="1" source="SSnDqNMQMaFf7AZcTWcz-75">
          <mxGeometry relative="1" as="geometry">
            <mxPoint x="425" y="770" as="targetPoint" />
            <Array as="points">
              <mxPoint x="180" y="1910" />
              <mxPoint x="180" y="770" />
            </Array>
          </mxGeometry>
        </mxCell>
        <mxCell id="SSnDqNMQMaFf7AZcTWcz-86" style="edgeStyle=orthogonalEdgeStyle;rounded=0;orthogonalLoop=1;jettySize=auto;html=1;exitX=0.5;exitY=1;exitDx=0;exitDy=0;entryX=0.5;entryY=0;entryDx=0;entryDy=0;" edge="1" parent="1" source="SSnDqNMQMaFf7AZcTWcz-75" target="SSnDqNMQMaFf7AZcTWcz-79">
          <mxGeometry relative="1" as="geometry" />
        </mxCell>
        <mxCell id="SSnDqNMQMaFf7AZcTWcz-75" value="IF choice == 4" style="rhombus;whiteSpace=wrap;html=1;" vertex="1" parent="1">
          <mxGeometry x="360" y="1850" width="130" height="120" as="geometry" />
        </mxCell>
        <mxCell id="SSnDqNMQMaFf7AZcTWcz-78" value="False" style="text;html=1;align=center;verticalAlign=middle;resizable=0;points=[];autosize=1;strokeColor=none;fillColor=none;" vertex="1" parent="1">
          <mxGeometry x="305" y="1878" width="50" height="30" as="geometry" />
        </mxCell>
        <mxCell id="SSnDqNMQMaFf7AZcTWcz-88" style="edgeStyle=orthogonalEdgeStyle;rounded=0;orthogonalLoop=1;jettySize=auto;html=1;exitX=0.5;exitY=1;exitDx=0;exitDy=0;entryX=0.5;entryY=0;entryDx=0;entryDy=0;" edge="1" parent="1" source="SSnDqNMQMaFf7AZcTWcz-79" target="SSnDqNMQMaFf7AZcTWcz-87">
          <mxGeometry relative="1" as="geometry" />
        </mxCell>
        <mxCell id="SSnDqNMQMaFf7AZcTWcz-79" value="PRINT &quot;Thank you for using ATM! Goodbye!&quot;" style="shape=parallelogram;perimeter=parallelogramPerimeter;whiteSpace=wrap;html=1;fixedSize=1;" vertex="1" parent="1">
          <mxGeometry x="290" y="2030" width="270" height="60" as="geometry" />
        </mxCell>
        <mxCell id="SSnDqNMQMaFf7AZcTWcz-81" value="True" style="text;html=1;align=center;verticalAlign=middle;resizable=0;points=[];autosize=1;strokeColor=none;fillColor=none;" vertex="1" parent="1">
          <mxGeometry x="425" y="638" width="50" height="30" as="geometry" />
        </mxCell>
        <mxCell id="SSnDqNMQMaFf7AZcTWcz-87" value="End_ATM" style="ellipse;whiteSpace=wrap;html=1;" vertex="1" parent="1">
          <mxGeometry x="320.5" y="2150" width="210" height="60" as="geometry" />
        </mxCell>
        <mxCell id="SSnDqNMQMaFf7AZcTWcz-89" value="True" style="text;html=1;align=center;verticalAlign=middle;resizable=0;points=[];autosize=1;strokeColor=none;fillColor=none;" vertex="1" parent="1">
          <mxGeometry x="425" y="1968" width="50" height="30" as="geometry" />
        </mxCell>
      </root>
    </mxGraphModel>
  </diagram>
</mxfile>
